<mxfile host="app.diagrams.net" modified="2023-11-20T09:34:19.676Z" agent="Mozilla/5.0 (Windows NT 10.0; Win64; x64; rv:109.0) Gecko/20100101 Firefox/119.0" etag="S2JsNFUQbfMryokltccb" version="22.1.3" type="github">
  <diagram name="Page-1" id="zuDz62KCVc-hbd65LJIN">
    <mxGraphModel dx="905" dy="1126" grid="0" gridSize="10" guides="1" tooltips="1" connect="1" arrows="1" fold="1" page="0" pageScale="1" pageWidth="827" pageHeight="1169" math="0" shadow="0">
      <root>
        <mxCell id="0" />
        <mxCell id="1" parent="0" />
        <mxCell id="yX0KzCqddHvq5yeCaqTo-8" style="edgeStyle=none;curved=1;rounded=0;orthogonalLoop=1;jettySize=auto;html=1;exitX=0.25;exitY=1;exitDx=0;exitDy=0;fontSize=12;startSize=8;endSize=8;" edge="1" parent="1" source="yX0KzCqddHvq5yeCaqTo-1" target="yX0KzCqddHvq5yeCaqTo-2">
          <mxGeometry relative="1" as="geometry" />
        </mxCell>
        <mxCell id="yX0KzCqddHvq5yeCaqTo-9" style="edgeStyle=none;curved=1;rounded=0;orthogonalLoop=1;jettySize=auto;html=1;exitX=0.5;exitY=1;exitDx=0;exitDy=0;entryX=0.25;entryY=0;entryDx=0;entryDy=0;fontSize=12;startSize=8;endSize=8;" edge="1" parent="1" source="yX0KzCqddHvq5yeCaqTo-1" target="yX0KzCqddHvq5yeCaqTo-5">
          <mxGeometry relative="1" as="geometry" />
        </mxCell>
        <mxCell id="yX0KzCqddHvq5yeCaqTo-10" style="edgeStyle=none;curved=1;rounded=0;orthogonalLoop=1;jettySize=auto;html=1;exitX=0.75;exitY=1;exitDx=0;exitDy=0;fontSize=12;startSize=8;endSize=8;" edge="1" parent="1" source="yX0KzCqddHvq5yeCaqTo-1" target="yX0KzCqddHvq5yeCaqTo-6">
          <mxGeometry relative="1" as="geometry" />
        </mxCell>
        <mxCell id="yX0KzCqddHvq5yeCaqTo-11" style="edgeStyle=none;curved=1;rounded=0;orthogonalLoop=1;jettySize=auto;html=1;exitX=1;exitY=0.5;exitDx=0;exitDy=0;entryX=0;entryY=0.5;entryDx=0;entryDy=0;fontSize=12;startSize=8;endSize=8;" edge="1" parent="1" source="yX0KzCqddHvq5yeCaqTo-1" target="yX0KzCqddHvq5yeCaqTo-3">
          <mxGeometry relative="1" as="geometry" />
        </mxCell>
        <mxCell id="yX0KzCqddHvq5yeCaqTo-1" value="Agent d&#39;assurance&#xa;" style="shape=image;verticalLabelPosition=bottom;labelBackgroundColor=default;verticalAlign=top;aspect=fixed;imageAspect=0;image=data:image/png,iVBORw0KGgoAAAANSUhEUgAAAT0AAAExCAYAAAAOWXXmAAAAAXNSR0IArs4c6QAAAARnQU1BAACxjwv8YQUAAAAJcEhZcwAAFxEAABcRAcom8z8AADMVSURBVHhe7Z1dsBzHdd/16Ee/RW/2m/Pk8CUpPUQWy6QUWnISKS7FvLNXIkuJqlByuQRSiusqkpJrWxUo5ShUrJTAO7P0tVKIIMVSIDFxQMQkQRGAAYYSQWJ7FvyQDIGkBIISCZASCZDgR/6n+/RMz37cux8zszO7/1/Vqd3tmf3qOXP6dPfp0+8gZBai2FzXSXrXi+D5rZ0k3RSJkvSOKE6Pziv4rO3sM+N0j/+uTtx/l/4EQggpDzEuztCYDTU83hi93RSJEnNSf9c+vN5cT8xN8ptv2T73K/o3CCGkiBi3ta3ezWI0nFEz50LDMkpw3nN4PO0F3t1JvO8BERieM+GxWQSf/xA+6zv+M1F2IDh+Ascv4HHkb/Mi58j/geyDWE+RxpCQFWNt68zfdwYgPQg5GxqJopireITxMY+K0YFHdUJe4/muBrEuEaPWscYxvQ+/83/jt8FI9o6tbaXi/V0aPN+LvA9yGOdvsKtMyJIRGjlrJEYZgaSXwgB8H88fhsBrswZv6LwBEW9Mu7vmEF7bsTcRGJ0Pum7x7OK6qflnQuT32++TLi1ej/pNBYEhlP9zH37fPfiP33XG0FwZcd4VfC6NICFtZFcj1zXSLZXu59mdjZs5JwYGj/vxGoZMur/SPTz9q/pVC0e6qvKbnJHNJ1DwfAcPVox8eqITm/8TbZl78P+eHDpOI0hIc5nUyOFG/+HQMYi8RwwFJBv30o9uPQNjlWLExnTNjYH8zVps/qbTTZ8aPE4jSMiCsYYOXs2omxg350UcSyHnB4/Z4262c590H1d1UN91oc2GGLLR3V0xfDsZQTteuC11qB9JCCmb399/9tetpzHQddvVyLnung3l4MzlaMR728kIQp7G8Qc6cXo/6rngMeM98K7NfrzvOv04Qsis3LJt3ombas/gwD3KXoE8G5YFx6yRW6Zuat0UjeCoWWCDhseG0sAYFsrF894UT1w/ihCyG+KNwWu4FTeQzIhmNxTKXsfjeRhAeQzKaeSqRry4TtzbK9dkhCd42nqAsbk4XN7bKw2XfgwhJERnIA8O3VSxeRpdqlcKZS5cZA9vqPoZ1yipHEOj9MDgNZSGSd7TpJlvQhaC3AS4KWRmsdiFitPncVP9vFDmxvI2ZWxP304WzPjhB3MZ1w/d396xgXIxhtu8hmTlEKWH93ZHwSOIDQxd+rPstb1J0gt6HgfJG874iSYjE0334VpKoHRWbj1Fhr+QZUeMFxReModkyr/eNT8NX6vXh3M4RtdWNHZyHwxbIaQIxi9F+ZGwscProzK0oW8lZDkQAwblPhwouvfs9LW9CQ5KIK2+hSwJOhO8H9c8DByXEJh7UIZucFZ2Fnpwq76NkHaikxOSFcQZt8S8Dnkpe+1uhE0OcK8GYtRwvbPub7QlmWrE+OUzv1Yn7KwvYypJSwhm97KuTRT3XoYy/8K/lmN4vYeKvZpIYxhOfoinD304Eq7+wGsZ5kCDyBl60lDEgEkLbVtqVVzIZSj0q8FrSdXELgyxyLAHGsDB0BeZ9JB0Wfa1NYhJegeNH2kUmgYpn7WL0xegqFkQMZT4KNdpknHAsA1NcEGOhSEv1vNDo6pvIWQx2NCTYIICrfbL+XP7WiL4GW5CJkLDXmQdbzi7+/BAHCAaV87sk5qRiQco4z6vnHh+Bc+vuee2jAGoZGakKwsdGgxah9cXrvU1h9jlJbUgYSVQRh23M2LwwjG7bSoiKYt8xY5vXGXCw9wrjax/DR3c4IQYqQQo2HXFbkYvm4215YyuJxWh3d5wwuNp6OOp/LU5xzFjUhqutbUp09XA5Yv/xeOD7NFTCakUN9sbxPnJLG+c/ih4fZhprchcaAiKjqvYrqztVqiC7WNQMVkERb0UXTT3Qj/t6g7p8lI3ydRIawkFClZSpOEqCramZOEM9UBkVUfc/16gpxc4y0smAspzq7SWqjy/9Eok4yZcGE6aBnT1Ohg4SSTr9DQ2Z/C651+L16enElJEZ8pkA2xVnvQ1pzScISPNpxhVYI1dZghloo0hVKSAzLwGCmONncpBhqCQtmCXQhZDXHp+ogP6fQmvuQSSyIyY3T1fjZzb/FoUhGmeZsPNMOYbcKvInryyt24mqGsJwbDH3d607n30qOdHuryoVzvLGyXpZRi+MIPzNic5VhTx4AaW91hhV2A6NGHmHjFi3sOYV9QobsjNq19DpkS9vnA9r6zo8Pn7zjKudMXQ8Q875Q8jFyYG4KDvLoiX4Lw4mTkcudn4UxAZSD+N4w/gsYfXqXudiXgeB+Q4DNu34I38lS0Psot4wXtl2EE2TLqVQw3TE+o65Id6bbR+zYaeRpaVsPXDxRfX3xo8d2Nxen8nnGc8sK+HrTvz6no3fcbXZQlyDJ95MEp6MITDRhXCdc1TIvUV9mqg7/kkB56zMVlSXNpujWaPzRvBRT/MMY7xDBo7aSzgkUnG3zDVuRfZmlJuKGlYhsbrvGgqLnvcfXZ6dORQgzRGsfnraKv3dby+v3icGWymBfW5z9cf6v0HEJuxGeWXuIxtybCZanMPxc9sSeQ6l5CNwa33TLfzeuuLscsaC1eHtttUWtfTdZ3FSI7pOqMbHG2lB4JrCaHxm4YwUgH1KVtV/m1Ql+zuLgNi2PSChh7eWa6qGI0MAaDOMo/AGbvAM4ZHZo/XMBBuV8a4JVdBzkJIt3cYN+yQ8aPHPhlST1Jfvu5Ql/cF9bhfTyNtBBfzjvxi5heVYRGjGVx+Fxo7uUkW6VE5z7OYYNMavzi9E+ImpTg2OxWorz2+PvH4SJT0fMgWh3zahk5Y5Ksr3EWVXGQMzhyDuwHyhAqBSBe3Md3HkRMqMH54DFOr72PDNhmuodOhhNg8uRZn68xPc4KjJUgLFQyKvymPuAk4UDuGwa5OII2eJZUbEr8xyy6MR/HyYv/7RQc4hDEZWpfWw0e9PQPj9xNXj7JrH8dLG40Ovmu+Md8144Ubh9SLMxa2nt5yj3bT6dbUl/X8whCMJP0a/suP7XM2dhOjY7l27BR1KBMcbkWHbVQ4ZNBI9AZ2QZj5LOPpJnsri0TqBXV2cb3rjIXKdlu7hbhJN/z/wP96GN7KX+vzKzR8kyM64OsNXt8PsuccGmoWotRyYaD44p77Li0HY8dguzNZF8Yq9WUJFdHDrcXFYrrxKW0AD+j/k5uW3v6EoM4khtI3hA/nzxnS0gig3HlISn6hWuuxVI0d83TLwlxdxelDy+QNuzFKN4llG8Ku+b/uuc0yQsM3IairPK9kt7A8kPfWIsEFCFskL5t6mAwgyor6OeHrCkp977IqsOiB/kd009Lvuv9sznG4Y3JcDyqbKHq0GNJCw1c7Xqn9mJRVbo477EgU9+6VurL1BeO37IqL/+nHpy5D1NibcwzFmBzUWz7ZFZsn8dqGtNDw1Qwq3Xt4DEmZEDQOn9Y6E4OXrsp4J/6vplcyP4aeSNYXeX5ID5MJ0KgIDVo3z0J/npHnYvj0FFIl4s25yvfCkJTdsGEdPgtKN31ulTwd8Ubk5lR9kf1irafCRnI6dCxYQ4PMs0EQ87aeQqpglMHjGM3uoFvyiNbZL1exvkLDB2N3RuviLLtn01FsQMxPfAMCoeGrAk0/LhWsQoM3CR+9y6xldYbnWrxyaBCzxnEav0E2J72mRGfH3eoNSRirkxusy5LJ4/DczSvKyy7t7kjLjPpy21jC29PilUUytmhd6IoNc4UN5/SEhk8aENyP/t6k4SsDWQJDgzcbUWK+6RQzfYMzlg7Uh88io0G3nNSYBdEn6W1JHeJ+9MMncn8yR+U8iHETI5dXqBg/rgOcBHh5kkjAzm534jN/psUrj2bQFl266gfjmZhgNtysrs/QkvqxUqlbho7NwiiDxxm3yYEyfsfWW5Je0SKioG72q16d10d2y2ZEGozsPg1WbvBenRJpQVCRmv3DyTKsDa0LO5YX992m5bH5L1pMlMKkhhVzTg+RGRhwUHSSg07KxIRjBV7oLk8HWtyP+brjQP1oUDcatJz+wj7WkP5+mZH6E0MndSm5DO2jvGa97g5ajCw3mlPG3l49RCakk/RPaf2d1yIygHghro7My/IYJekdeojMyECUhV/BcW5VVv/MhCierag4S2jJsZYpsZHzOoGxtpV+VovJABpomw2hyHM9ROYgjKeFHv6d1i2Xq43CVxZaCmvw2PLORmer9wmvdAxT2Rk/oQFd05UFjAwoAxg5m+4NRu8qnrvhAzowRXTiIpipTY/qITIluIFdtlu0slpExiBGTvVNA7g5lFIWWa8tyb1pTmwoumrgrN1f1SngBXoos6GR8rYeIbEWkx0oTppxz9eysMMH+QZdWTZrTqwBVMY2KsMqXRT3rnK2Z3ak7lTJRMEYGT8BqKevuDqzWw2c1GJSAgOhZ26jIdSxGEQ9ZfXI1kL6VO/sXsxFXp/iNXN8ajdcI9HXm1J0kPF6ZeOHEERgAC9qXa+mR+3iegqbSx/UQ2RGRJl8fXJp1Xh05nZfoHtWJGOInkJKBHppd6pDnf8iio2mnF+x2Fs39mTOBdsPMrdZCUCpshhHjp2MRocAdG/kUFxvQ08jJYP6tRvKR7r0T+L5IKuTOMTdnE7J8Mcv0ysph2DgmEZvAG1oM094nOjppGS8oyN1HHXTp1x9r0jgMv6s299C4/EkPk8PkTnxSiVCo5fjVgoU13KPE30LqQCXnCBbqvasq/MlT+0Vzi66P84A5DIJb2waPe9dZGtsR0o4JCCibyUVIWN5tt6DwGU8LmekgY3Hi9PHvHKJsukhUhKhp7fqs7e7eXc4Jslo7WB6Xs7Z2zrIA5fN8/5aLGVsLv6gncGxf3JrtXbkqgvUrc8KvLKpuCb07g6H+hccO61FpELCwGUYwJ9q3S9X9IYLUnRT1SJcjlIN4j37OsbzfVq8Mkzj3XlEN4NzGDZVE2oTfMiazf24VHZBWlb9c1SsCpG6dXVsA21XZu+HWbw7jwyu5+eZDS0mNRD0/l7U+j+3FKFr0s1yN6EonnmJ3drqCJTIejWrEPs4i3cX4vRTzu0zkqBm7Di/H5KJ0+f0erW7hyItMBROl57YP8T1oBWS5zJziTGXeRhBGk/oU9iDGBI5vlsjG8X9r9rzY3NtJWLGGkYW0RH3bBdXuryQ9gYt4+bLgkFl4FKLSUX4rhpudj9WspRDCeK54T8Ge1wURY7t5N2FwMOwG3/j/FNaRGrGz+bCRthJjdbaijAmz8XkcK/aOkB9Z0usUOdXlqmLO4l3B9me1GMrTGJ0z3xMi0nN2NlcHaKAztqErnjdrl5hoa/u/sDKzSQuCtS3W/GSmJ/L47KErojnJh6c16lBkZtm2u58lPS+JO9dT2QzdK79XiR55nSX0FWudavG/92Auk5eJOnjVKj6yLu45po84jq0eha3bO8uBO9z3kViHtAiskBEV/V6+v2I2zE847oMeUwe87rVj4yJuLo3YvzQxW3njHkV3p2nEKrSNf9Mi8kC0QbOXm88Wo+vFZNx0ioHKaO2tZjUCIydDV1Z7/qB4Xatca7Su/Ogjr6jn/MqeyLNAdfdbiqE62OHZ/DY7Ng96ZfjR1ulRCt9sa0eRtuRerfXwHrcWdLGVkwkidJDKvHuPFo/tvuPz/tjLSYNIeupaOxeozOqFxMKrFhm1IYBY+eTNvoce41eV2rTDmXd8rEyl3fngZ7eL58HHb1KL695SAMNuXLz/jOvu+skm4U18Dq52Rc3edGJzWNaTBaENSJ+bWNsfuIem9liQm82st86Ws6WNbbT6aY3+M+N7uz/gRaThiFDMv/8P3z/7fd//tS1m/f3mqm7oZfH5TzNANfCJ2z1AbiNmtSYxLtDK7+vzFYen/kz/dyntIg0ENHT3918+I0bbz/+9vv+zYm3f+9Lp19slLdHL6+ZiJLgurgce7F5xD42JIRlEu9OAtz19FKAobvTfnZs3lrf3/sHWkwayk3/9tQ5MXpefuezpx56zyePNmOpIL285iLdQrkuMDCyKsZGu0MWNqu+CO9OyLfHtHJAi0mDufFTx01o9ERuuP3Y4zfedmyxe2PTy2s+uDaaciq9HwbFx0HVvkpmEd6dgO+0KcqdmJ81clCcDHHjbccvDBo9Lzd86vjiVnnRy2s+Mj6SGbsk/W5geDb1lEpZlHcnOIOnjTKkFcGuxDLK2IVyw+3HT77v9hP17qRIL6894Oa/Ljd85pve8KGssoXdbkwx3QyM7CipxLsTxMDhv9qwBxExgHqINJz3fProO0cZuiG57fiVG/cery85Ab28duEMX2aADvhrJ91OPaU0NMvOiE21ncjvqMq7EyTRQtHgMZdjm3jvJ49fN9LIjZfDYij17dVAL6+dWO/He3lb5muBUdg14eYkiBETY+Y/d5RIV1e6vPqWUnHe5dCm3rV040l53HDbgzeNMGy7ySV5n35E+dDLay9+RtdKbL4KI6W5zORx9gQRk3h3VXiVHjGk+B58vzTGrkEWA6yHSYt47+3Hbx1h1CaT205slx7aQi+v/cAAZTOaeH4vHu3SLPd6OkOxaO9OkP+D3zA4dsiEFy3lhtuObY40aBMK3n+21NCWTtfc7RWLXl57Ec/MeXfW0ImX91+zrq+dbd3d61u0d6fZj31ITvad+D8cw2sxN9x+/I5RxiwUeINv7RTWIlJKaIsLf8gSVJ7RYtJSZAE/DESWxilK0q/hurpVHNaAyF66w8Zv0d4ddPA6fEdg7Mxb+vxslR4lqQcYrIODBmyUfODzp76Ixx3PveH2Y/v1Y2cjjGxnzNPyINc18/Ji83AU9/4SRi1M8XTae/WL9O7cd2cZdkXeCJ5vVzUbTOoFxurooPGy4SkDZTd95tSzcr6OAV4aPJ7JPF1d3AhPqYI9rUVkSVCDknl5kGOuy+u6wFbi9DF4g1koyKBU4d1p70LG7OB1Zt+VGTsxzsuyFwhxwFAV1t1a2XtsY6gM8oHPnHq3vEdCViRgedQ5v337g7MNw2kLr0rH3eCXEenu4vpuFry82Dy2Fpu7CsZvQGAIL4th0o+ZGxdYbLcGzDaYUgmDja/IOWWE2pBmMcqrc0bt2OnB8ps2/vZRfZvFGsfg/fKe9/z7o7P1ANAF+guvcFS05cYaP9vlDb0881i01f8mvLk3s7JA3ORHuumGQHrXi+zk9YkO+fPEYMp78X0j08Sj/IX8OY3dMiPhJqFR8yLHZPXFqGODy9HktZ0Bnme1hhu4Nq+qAnL3qBXBBvsOGj9vfOB1ofwEnqMbXDw2WmzXedBzGy1x+jzEpQtXwXeJ97lJY7fc/JNPnvz1EYbtnBwTj23UjO17/+j41+yby0TGTLzyMUxl9dDZ2j0yiaDGJzdQInH6EB4P4Pg9MgmC56dxnpQNGLl+8Nxu9SfnyaTIMTz68eKCoPywGN4yUsWT5nPDp45dP2jUZKxOD6Pre2zv4PH33n7iWunL0NB1eVAV8DJnyIhOemxAH8LJhR1EvDwzdsZ3QMQQ7mN0wGry27c9ePOgUYMc1sPO2xuYqf2dz558rdSMK27sxSkklPErWkyIRRpBXdom6ellXO6oGsOdvLwf+vMgEu+3Kb0JenNklCcnS8v0sMUHL//TP3747X/552fK3yN3vZt+zitr1JKtBEmzkAkNeHpugyKIrKTQQ4QUGBmagjI9bJHJjvf/6Ylfk0ktr1PQr/K2QkBLfNEZPG6mQmbHdXFVQdE91mJCCoxKKyVlergAdGlbdeqaGMBSJrkknACenipqgzfdJY2nYPSgV1pMyBAamnJOYuxktYUWD+FCnkSfzCul2aj1rvmGfBis6DWGCpB50Dg+Gj1SKtCncIJs/k3tOxqb1+mmd2sRITMhkxa5ctLokXKAl7ehevWaPM41XhwuO2P4AJmX0OhxrSwpiyy6JHbrsdErnX05ZBT3v+w+zLyhRYTMTGj05lJMQgaATtnwKOgY9GuOWVx8gO0rQ0Ef0SJCZga6pPnvDI0eKRXolcSIQrf6YvguafF0uDWX6i4mZz6jxYTMDHTJhxfQ6JFSyWdx3bge9Gv6eGKNsPcKyoBkMjfQpczoyeCzFhMyN25teCFQeXr98tsDwlW8okWEzAX0KTB63JaRlEs+ZizDJ+lRLZ6cKDHPqnLep0WEzIUmBaXRI5UgOuX1S7y+qRKjyKJvvwoDb/64FhMyF6FSynMtJqQUZBhOdcuO600VC4o3Z3uicmE4KQvoU94Sw+vTYkJKQ2ZuZ9IxnPxd+8Zu+oIWETI30KnQ0+NG3KR0JEYv0LHJl6ThZGstxfhpESFz4/bOEGW0efVo9Ejp5Drmwu0mys+oO8ZbS8mlQqRMwmETCI0eKR1vv9DNvTaxDVvvpp/2iskstqRMikavxISPhARAt8K9m3dvXDtJz+5sha7teS0ipBRCozdTHBUhEyCGzumZEbG7qO0ITtbxPFP+lmpkpZFd9ES3JByKRo9URdC42o3hd+yxykE9mamkSOkE6yNp9Ehl+FRT6K3acb0dtyYI8+dxPI+UTWj0IPNnuCVkDIVxvZ1SyEd39v5ETkLX9iUtIqQ0ikZvgrEWQmYE+mXj9dCjEF3br8XDRFvmHlXIR7WILJDcQFBaJFxe1wDkOgTXZHyvAn3gZ+QkWMc7tYgskOCiUVoj5gG9fGSBFCfNzPhMUesaxRxtPf5hLSILpHgzUVoi9PQaQLDIws7gymbzeignXInBJAOkCkIdE9FiQioBPdYs+YB4flqc85G7er8rB6Ok/7oWEVIq2a5VKlpMSCUU9lkeNYMbxf0vuIPpc1pESOlkSgjRIkIqQWZtva5Fo9JMwf37tj2BO5+RCvFKKDJVZltCpgRGz28CLpOzh7U4R4ydHFyL029rESGl45VQhGPHpEokw0qgb2e1OEe6tXJQurlaREjpSPiAV0QaPVIl4QqzkWErUWKuysH1bu/3tIiQ0kGXI1seRKNHqiTLJaD7d8tEmh4qJhqgIpIqCY3eyNgpQkokDFspJB4I46e0iJBKCI3eVLtVETID0LPTXt8KsXofSXr/wh3YYbkGISUAPTvrlZBGj1QNbFq2UZDk2dNiuIBb5jZ7IDbPaxEhlYDuhu5CT6NHqgd6plmURcyGFuNA3PvPUgiFfFqLCKmE0OgxUS2pGujZ6A3mYQG/o4VM7EgqJTR6he4GIRUg3p3XN0i+SVCUmBNWCZP0Hi0ipBJo9EidiI45fbN7LR/UYquIfVXCvJCQCoCeZWMsNHqkanxePadvwb4sKLhgC7d6X9QiQioBekajR2pj7L4ssIAvSOF60vsjLSKkEqBnwWwaE26SapEA+Fzfgn1ZYPRc1PJOuwYRUgLQMxo9UhvhwotBo2cXgUtWAi0ipBLE0OVKSKNHqmWs0UPBa1K4tj99vxYRUgli6HIlpNEj1RIavSjMtAILaHcCX9t6/B9rESGVIIbOKyEkj5sipALGblFAo0fqAnpGo0dqJdA3Gj1SP3mwKI0eqYdA3wpGzybZo9EjVUOjR+om0LfA6GlmURo9UjWh0StEyBNSEV7fRLTIenrs3pJaoNEjdeP1TUSLaPRIfYTLgmj0SB14fRPRIho9Uh80eqRuvL6JaJE1enYntJvj/oe0iJBKKC4ADyLkCakIr29oZC9okS18RQrX4t5HtYiQSqDRI3Vyy/a5Xxmpb7CATDhAamFs1gtCKmCnhAM2tVQU9z6nRYRUwlglJKQCivqWntVia/SYRJTUwtgF4IRUQFHfipmTe+6A+Y4WEVIJAy1vPptGSAUUh1OCPTLw4gEpRPf2Xi0ipBKKA8s0eqRaBibO9muxjZL/lh7gFpCkcnIlpNEj1SKJkQN9y/M3ylieLYwNN/smlRMo4duS70yLCSmdgWWPe7TYHvi4O2B+rkWEVIZXQhEZ49NiQkoHOpblbxQDqMU40O1/wBWmnE0jleOjBURo9EiVREl6h9c1Gd/T4uKMmgw0azEhlSDxeV7faPRIlUDHst33ZCZXi4szaoUDhFRAaPQ6cf9dWkxI6USJOel1TYtyoIh2/e1H7zJrWkRIJRSMXtjlIKRkoji9qHp2Xoty0Pd9xh6M+/9RiwiphLD1pdEjVRH2YAurMTydbvqQHFzjqgxSMaKANHqkagZWYwzvx9KJzTfkYJT0Ui0ipBJCoyfBo1pMSKmsbaUfFB1b71pdG95Yfi02t1tFjNMXtIiQSgiNXiF2ipASkVR5Xs9GNq5RN/0tq4RJ+qYWEVIJncQccspoaPRIZRRi9EZFCchyIH8Cw1ZIlUDHstgpGj1SFXnjukP8Mazha/ak7pmPaREhpQMdc0avmx5eS574R1pMSKmgQf2Z6tlTWjRMlJgn5CQ8flOLCCkd6Nh9Ts96b653009rMSGlccv26V+1Bs+KOaTFw0RxereedEaLCCmdaKv/nFfIKO69zKWPpGzWE3NTYPQ2tHiYzlbvk3riq1pESKn4MAI0sKqQNqSA3h4plXzmtv+26JwWD4M+8HVeEcU91GJCSiPaSv9O9CvaMi/j0S5Ho7dHygZ6lU2W7ZizURQvSsybVhG3Hv+wFhNSCt7LExHvbvC1nkbI3KBLa6wdi83LWjQenOh2RkvSA1pESCmEXp737KBnrsx6e8yiTObHOW/p66JXna65W4vHI2EEzuiZn2oRIXMzzqsLyyGxFhMyM7KeO9OpuLdXi8eD1vgj/g1M8EjKYpSX5+nE5keqc9fo7ZF5CVdiTLTQIoxvQX/441pMyMzsNnZXDC+gt0fmI4rTx50u9S5o0e7gDc/aN6Grq0WEzEzm5cXp1XGztDh+v1NUentkdopByf3/psW7EyX9A/rGS1pEyExMOmYXhkvtdB4hOxHd2f8Dr0fQqcnXdYeKKsqoxYRMTbRlHlFd2tWDwzn09sjMyDBJlBg3awuZSoekC9KJzRvyxig58xktJmQqpvXe6O2RWdFxYZcwRSSeoZeKN56VN0MRT2kRIVMB/ZnacwvfwxRnZBKkG6s6k0kE+6WHJwcf9GX9ACgslwiR6RCvbd2l6RaZ2GsLvb0o7t2rxYSMJMyO7EX0Ltoyt+kpk1MI8OPmLWRKoDczj891uj0bIG+Vl2PKZAzQkc1OYjJj5wUG742ZcgfYcT0orP2QuP9lLSZkV2b18jxiJL3uQe7XYkIyYOz2q35kgi6tyxsQpw/radODDz6lHzJ9/5isLNCZuWdh8d5YPoPeHglRZyzLoOIFOtILXg/vfDYpMnPrP4ippsgkzOvleejtkUHE4MGbO6I6kQmcsiPQuU/nZXMMx4kC+w/i/qRkEqArpcXa4TPo7RGLXWkRpw+pboWy7Yxh7155DT25PPfEK6zoZfthiXlQiwgZSVlenofeHhHc0jJzRvUglG13HEYvTq9IWRT377Jvmgd82FfcF/Sni3AmKwf0pDQvz4PPyrw9CUDVYrIiSKYndFfPq16Fko3bSS/Ul5fSIwi7uFC8z2kxIQXK9vI8Yjzx2c7bi82PtJisAKJTUZI+4+1PJgM58tDtfUzKce55LZofeHtP2Q+N02e1iJAC0I/SvTyPNLb62Ttv8kKWBmvwYruPSsHgoayQRMB5gu4Y9KS8LQd81LNryRmoTIqIglbh5XnsmI3bSOhtSVOlxWRJsYkDBg1enL42qsFD+X9yxyUgucTGVgYS8SNsF2O9a76hxYRYoBfOy4vTchUvQFpx+x0QenvLi2Z4yhMHQNDDfHnceG6nm77gzjPf06Ly6CT9Q+4HGHRfuBaXOKR7EXh5lc2w0ttbfqTrCgOXGTt7reHxQUZOToRLZStpCDV1i/8hkyfnI0uNhAgEelFpLB29veUFntqGv7ZeosQ8s1OmnShJv2vPm2Sbx1mBFb7kfkz6Ay0iK4x0ZaEPtcXR0dtbTnA9N1WHQjm/08ZkLnZPcwMk6Z9rcfmsxebP/I/iTmkEemBj6KziVezleUJvD43wHi0mLQXXcWgdrQQi77bstRObP5RzZWil0ryLxenh/he0mKwgdXt5Huvt6cZVMLQvcXy5nch1wzU8qPqTS9z/3m4GT0DX9wk5H57/E1pUHdK1tV8Wm+e1iKwg0IHavTyPzvDZ7xbPT4tJS9CG64is8vLX0elRemSSRkw8u+x98Pi0uDqg4FlqZg4mryaL8vJCcNPotpK9oc3DSXOxY3E7JA7Q03ZExvD0Pdcm8QrnxlppvywoMUaLyQqBa78wL89Db699uMZyVOIAs19P2RVnf9Jfyvtg/A5ocfXIJrrux/bp7a0YTfDyPPT22oObDzBPq96EMlXCT3zG5/V9b4ouanH1SOue/2h6e6sErvnCvTwPvb12IHoSbaXP+2vlZdrZ94KXF6d3a3F9dLrmbvfj6e2tCk3y8jySecXdBPT2mog1eBMkDpiEhXl5Hvkz+Z+gt7cK4Fo3xsvzFFcKpV/RYtIAXOKAXmEdrSQOGLeOdicW7uV56O2tDk308jzye/R3lZ7WisyGJvYcShwwa5amhXt5Hnp7qwOuceO8PE9RD8tPbUWmA9fjVtgDfz28zoxNHLAbjfHyPPT2lp8me3ke+V36++jtLRAYu6kTB+xGY7w8T7GVpbe3jATBoI3z8jxFPaS3twjghe0LroGKeXKedfqN8/I89PaWl4LSJc3ObILfSG9vQaDOZ0ocsBuN8/I89PaWlzCrSdMbNHp79SONIu55m2A4FDSUR+Y1eI318jz09pYPp3Q9l7+u4V6ep9PtHdYbj95exVj9SNIjkt5J69wbvMNyTE+bmcZ6eR56e8tHm7w8j9wc+L1u0gUGUItJyWjiALv14oDYDbjnpfFenif09mAEmVK+xbTRy/PgN9vwGvFApDHWYlISuo52KHEA9OQOPWVuOvEZn7C4mV6eJ/T28Pzn7F60lzZ6eZ6Ct9fQEJu2IgYPxm14A+4pEwfshHiR+I7X7efGLdh9Uax9UBGluLqkXtrs5Xnw2+ntlYzUYxmJA3YjSswJ/dxfljE2WDnaF7+YVwo3B28bbfbyPPT2yqUT998Fo1dMHBCnr6Gs1GEsfM+H/OfLUjYtbj5yo+SVY55uhbUmlmXw8jz4D/T2SsAmdYCBy+9pSNybKXHATljdS9KX3HeY72txe8CP1tgdmdRI92kxaTjL4OV5xNuDsaO3NwfiyaHuhhMHwPPTU0oD32U3CpLxvI8dSH9Ni9uD7V5oWpm12LzOlrb5LJOX54ER/5z8H/H2qrhRlxk1eJmxs3oRpy9VcS93tnr/sBObt+z3bJk/1eL2AaO3N6uwOH1Ii0lDWSYvz2MNuW4QjpvqSS0mu4D6GtqAWxIHzLOOdidgTC/Y74nNT7SoveBPaABjX8YB9moxaRjL6OV5ltGYVwmufxiBoWLOVGbwtnpflO+AB/mWeHxa3F7EFfYVh5vqNcbuNZNlNgyhtxdtLZdBLxvU0bZ1UFQXnMyfOGAcMnYHL8+Ou8JWfEuL20+h5eia5i4pWVGW2cvz0NvbGdGBfPIxFxikuRMH7AS+47R+Tzti8ibF3VR57F6r4m9WgGjr8Q/n12Y5DQK9vfHoCoihxAFiBKs0RJ1u/xP+u5bSJsjN5P+gRHWzm9scxAi462Je1qKlhN7eMDZxwMgNuKtdTQVjKt971X1XC2PyJiV0n6PEnFwqd7alhI2RGAUtXkqst5ekz1r9o7fnEwc86a+/F/TKKo+rDTK0vPavvv6jv6fFy4cLFs27uTLWp4fIggi9vFVohEIjv8rDLHUkDhgHroFuPyCbB/X/tRYvL7IW11cwDCC7GQtklby8EJmscfpnLq1ib0MiKtZiv9wrF5RXng7O6ZzbKS1Kel/X4uUHfzrbMQkVfXWenZLI7Kyal+dZVWMviNOBe84Fa3uJ09fq8HqlG4vvcymjkvS8Fq8O4fjeepI+zvG9elnlG1/Ivb3eyhh8lzjALQ3NpILEAeOAnvnu9BXUeWVhMI1FZ41+HFyAg3qI1MCqenmeVTP60nXFf60lccAocK//L/e95q3fvzO9QYtXDxlbiLJpawiXqdXCqnt5nk5sfiR1sOzeHozbnuweU0HZ83L/6SmV0tnqZfF4N9/JjEu+BXIXQ3J2MRNG5ay6l+ex3T3VvWU1/vhvQ4kDIE9XtY52kI/+5ZnfhHf3hnxvlKQntZigUvb7CwIjeJGBy9VBL68I6sFuEL6M3l54X+Ui62jrub+kPuFR2lli3NcvrXIDO4RUhqSeksrBjSiu91E9REoGRu/bVglX3MvzSBfP1keSvhl1n/gtLW49+E/b8r8KEpvHqlxHOwjq9P+5703fEI9Pi4nHBkuiNfAXCIaPff8KkHqV+qWXlyP74+IGvbwMQyvqXfkNzzNB2ZE6GzkZu8u+f6v3CS0mg4RjLCqVR4evIuLd0MvLke5enR5QVdiIiLj/vYF7SORgnde7c6e5Bd6dzYIcxb1DWkzGgYoaGHg1G3qIEDKGRSUOGORmu5uZpn3vmie0mOyGXKjgoskgaOXLYwhpK+MSB0Bq7Sl14sfeLeN39rvj9IVl8J5rZXBcgjn4CBlGlnBGIxMH1NtDujk585uZwUvSF2nwZmBwQBbe3tW6lssQ0gZkbFZm4f09EtwrtfaMOl89+xu4V6+47zevtnL7xqYghg8VadNJ24uZ9Gj4CAFyH8C4jUgcUG/WIptEIE5fdb/BXBEDqIfIrLgB2tzwoWIvSwunhwlZOTTKYWGJAzxyb6Jr7cLMpGu7DDuZNQWdmTrnLzBcaRo+spJI1zUzdPn98HLd94PrhZnn7W8Qgxen79ZDpCx0hirIymJ+XNf6QUKagCTkyPXfiWzAvQiDBw/Ppt3vyF61cf9DeoiUja7auJxfdBo+shpA3zeh7wWDBzm/CP3H9/bs94vBS8wtWkyqQlo1u2TIXnTZlNico+Ejywx0fEzigHrDQnRi8Wz2G7p9Li+rC2v44l6Wh0/G+JiSiiwbamRGJA5IH6rf4Jl34rsvZL9hy/w7PUTqwk3ZB4Yv6V2te7qekKrQcbMjmZHxel5z4gBBAqDRlc3DY2jwFod4d8UxPgizL5OWY6MVNNXagGzXbfA63d77YHztZj5RYt7sbPU+qYfIopDxPFyQfJzBXhzup0vaiYZnLTxxgBDFZyTN/Jvy/VHSf10MoB4ii0YUBa3QyUBBIOZQ3a0iIfPgGvDe+aIeW6k9xVqU9L6Uf795mdu0NhAd9D2YXygrp+se8CVkFjQqYThxwAKGazrdQrKPZ7l9Q8OJNDNwLuYcWynSZFw0wuITB9geU2weDb7/EfaWWoIoS648fRfSkvSu18OENIZxiQPqXkcrXesoMT/1vwHP/6ceIm3BKlMWxCwXkSEtpFnoznRDG3DXbfBgdK8LQ1KiuPcneoi0DXsxC+t1rVJxwyGycKQ3Al3M9NLppqk9cYBsEIXv1BlaPHbTj+kh0lY0kjxITWUv7kkuXSOLAg3xRqiPqpPP1Dn2rBEPD2a/AV3qqJsuzRaYK4/GPh0qKFmcXmYKelI30L2Bja+s1Jo4QMcR86D+2PyEk31Likz/h0vXVGqPcieriejagO5B6kscIHoO7+6O8PujJP0r6v+SI2MmuNi6giNL1XO27rEUsjqMiSGFh9X/Xl0GTzw59G5cSigInl9hT2eFcEoYpuvp29ldrtslZeO8K0kcIGnQvL5Zo3O4Lg8LDfqt6MJey7/b9BhwvKJIyEBhbCNTRq7iIPNjx5Lj9LFQv1RqWUfrxrL7hbHsTtL7oh4mq4q0eDKbGyoGDN8FBjOTeXBRA6MSB5j9ekqlSAYiGNwX/fdCp5lzkhSBYgzNqkFR9nGQl0yLSxxgnh7UJ0jliQNEX9e7/S+E3eko6d3L3gsZicvPF2SHTYz1+jjgSyZFJsSirdTtEhYI9GiPnlIZEorSifNdAyHX8PoP9TAho3HjIMWYPhEo7VHO8JKdsAZvAYkDZGYW33P/wPeeZ+wdmQpR1KLX57oLkqCUXQUyiAv47Q1swF1t4gDRQ+jovoGZ2WtSxmEZMhNWqWDkCopsFSu9xPAW4pHhD+jFUOKAKifDpFEOJyqsxOn9XF5JSkEDO48WFMzJac7yrjbW+AzsRwtdeQnllQyF6L4wj4TfB0/vx3VnZiErgksFFA4U+xkySU3PYM9VA9d+eMY/Mc9U4W3ZEJi49xeF74rTV6B7G+zKkkoRBYPCbaK1veKUz7XyUEB5vUkFXA1wvQcydFtdeLIKgyeGDfoGAxd8Vzf972xoSa1o8Olg5haRCzLex8mO5QXXuvLEAdJ4Qpf2wHPMshmLwPg9yiBjslBkTA/KWNyC0hm/S5B9bI2XB+fljwxnOlKWwZPPwWdKT+Ln6938O9bi9EWU1bpnBiE74tJWpZe8knrRbvA2Z9XajfW8kvRIaIjc9S0ncYA0jhop8IvC5yfmddd4sudAGohtpZ3xC+L7RPzsHrwEdk1ah7uu1SQOcEvW0m00jq+Hnw0d+oWLCWVPgbQE6YpAefNub5y+FSj0UW5S1A6cURpOHCAGSU+ZCejHdZ2uuXvoc9Gtxfdt0LMjrcWmrypkcTEwftlicEleynGahiIGD8ZteAPuORIH6BjwsYHPs6EuaAz3cPafLA1O2YcHwa3CozssngPXSjYH8cTW4vSl4Ws1fSNlZ/rj3t5ON31q8POgE4YJLchSo4vDCyEPA4Pj6BKbDU58LA5d9TC0Afc0Bk+6p3K+DGUUPicXeHtczUNWCD9bh5simPF1XV+U2dfSLXZdHg5m14VLz1RcRwsvbaLEAdI1detwR3v0Vrrp/xAvUt9CyOrhPIJ0D26Iwt684cSHE3NIPAeO+VSH1C/qejhxwC4z7m55op2BHdxpz8t5fM4+eu+EDKDhC7KesxDs7ERTW7m4v4Oc/S0XNXiFOoehGps4QMdo97uEocWEA/rei3KcIUqETIjcbNr9HYj5E8nW+15yEyDpBxniMDuoy10TB4iH7XLmyZrb3vnB8/U94ults0EiZE7sOJPtPg2v+BjwMk7TCE6H1FdQfyrmTOerZ3/DG7kw5GhwRYYTc0jG8jj0QEjJ5APlozaOTt9yNySN4KSIN406yrIOi6C+LnZi83BYNkpgDI9C9rBeCamJYAJkG4Yu3AzGCY3gjkgD0un2P4F6eiOoH0i+i1goMJCXxaOTeDtOSBDSAORG1MH40UZwxGA75LS9kZN0U7pyyxoc7SaI7EoIGbvbDrurUeyM3FAiga30OTwelIZl3GQGIaRByI2uMWP7cfMOzwZnITFy0xcNohoF6UJvus/oXd90z9CuesDvFC9Wfrf8b9cF9cled5bQyHFlDCFLgBiFHY3g5HLaGhM3ASCeU2YYrZQcoiGf5z9bu/P2OyEysSOrHQb+y0iPdoRYb1hi626lkSNkBRDPzRmp3l4xYM4rGjU7PCyjZzDrkNCgjR57GyXOOIqxNxvyn7nChRCSkRlDayAkg2962BnEybqJixI12uL5qSfYu54TDoSQucm7m1k3E+LHz7yUYyDDz8RrO8boxcUuitfG2DgyLe94x/8HbCPMfde5BwUAAAAASUVORK5CYII=;" vertex="1" parent="1">
          <mxGeometry x="52" y="-80.91" width="98.74" height="95" as="geometry" />
        </mxCell>
        <mxCell id="yX0KzCqddHvq5yeCaqTo-2" value="Déclaration d&#39;accident" style="shape=image;verticalLabelPosition=bottom;labelBackgroundColor=default;verticalAlign=top;aspect=fixed;imageAspect=0;image=data:image/png,iVBORw0KGgoAAAANSUhEUgAAAUwAAAE1CAYAAACMQ9lWAAAAAXNSR0IArs4c6QAAAARnQU1BAACxjwv8YQUAAAAJcEhZcwAAFxEAABcRAcom8z8AACS+SURBVHhe7Z1PjCTHdad19FFH31Y367TiUYe1QcCAIUAXXQSqqxorwrCMgS4mFgI8hiGjYSx2BOwCA0ML91RmSS0IawxAwx6tgPV4DFkUQWgpLi23OBVZTdGih9SIGlP/hjOkOBwOae57ES/yT3V1T3dXZlZm1vcBD9UdWZ2ZnRn5yxcRL158COAsjBL3yDidPaomPz8+TrMdtVGaXRwl2VOrmuxrL99nkp2Lxxon84/bKQAAdAMVpiBS7ryJVhSyD46z7eny8iZslLpn7bwuyO8726n7hJ7zZ/du/Ib9GwAA9aHCuDWZfUYFJwiiu1GIkqsIVDdtvqRMxDTJbkUxFfMeKkIKACdma3L9o0E8sstiB2WBOaXtmxipwF6R333TWW1rkn0qbz6f0YKnWOxT7HI8nnqV8vuyc1pih8VU9qFCetV7zjTvASDi+xmT2RMqaiISbyyKx9Hmbqg4yeeu/C4iqB6oemj7H7Zdrx31FvWcgkAXfafy8wleBHMVzvx3+zsR5tmjtnsAGDqh31H7HE8mkPKdQ81W21XvWehqUI+y1NWwaMsFVD1dmvEAAyEKpAqC2L1CAJabDZJc2GQh0JeCXAvrr11+nQ4JKNcNoJ+EB97tygP8cA+SB/2hnEVAxS6r98o1BeggfrAmzS6GZqWOXB8xMoxArszJBDSYfOe2fO7p9bY/B4B18NjuwUe0uS0P5JGDGAhk8xwloKPE/Xt4cYXQK9l+K3j+7hH7UwBoks/uud+UB++cCmF4MJd6kiqgOyqo9mfQEofvTzDx/t8v/x5aAhpdcP2j9qcAUAfqGYaphT6esfTQFabeSwibwXvpCke1AOQeiXhWXnT7GtqlYmt/CgCnRR84L4Lp7J3Sw5WbbNNBnT1tEtqfQEep9jGX76M22yu/XyFYHuAU6MMlD48mlig9SMHEO1Hx9COw9nXoGaUoBh0QWri/+edTDBQBHIM9SEub3fIAXdVmeZdm0sDq2Cyky3JvixjZJHsv/9lPMXWP29cBQB8aG83OBVJNfr+jzTj6toaP9lPbFNVyYhMRzpjcRMp9PyeRDrCBlAZyXikekGBS/rp87uBNbiahXpQGikoep7xEtRkvdYOXKGwAKoLqKZgoVoRSxVMeiHN4EaDElkesH/JzProu9eeetj4IHYNB4oXSBze7O0tiJ/cZxIGjOK5v22wPjxMGg4qheAOHPErxJhkJhRMjL9tHVBzLdShmr1ePUz6lqU7rBHqKzxSUZM+VK3gwTa1GgDmcDQuI1ymWpexTsame3dKmvH0VoPto80grdFGZg0llvkqfE9SF1rMQDG91rDo49BQvZeg0PjQkdee3kuxOeaEvqdQv0vSGplBhVIGM9a0inD4sjWgL6BgqiNsijHml1crqB3jcefqVoA18X7nPiFTUwVAPs9ti5+xrAOvDFg3TbOaVSip2mZFLaJsQ36vLiYT+Tfn5QalO7pN3ANaCNnOsYi4mxtgneQKsG5+4xa9TlNfLd0s/8zKH9lBBFKGshAmNNHNQMnvCvgLQCbSrSOpnPmtoOw39myKm0kxnjjo0jHqVsfIV5nbpWIcuo33pKpK+viblOeoa9E7dhZoJuSkXs2hrwgxCN6AfhHC3IvBdWkXWTNfEHnQjQU3o6KOGCsWKZpXsvG0G6BXaTI/epnyW+jap07ACNv97MZHvq7yNoe/4oPeFRdvUtIwBITg1flpj6l5aqFD098CgUK8yD0FKnfc21ftkeiWcGK1E4yS7H4VSKtRdRhRhqATnwEbSk7nU+zxp8S6TLuBIrJlSjl3TaWbPsRQqDJ1D3U/F9MoDBjbhEKEjXKcyWoURE/G8wBsWNgltSWmT3J6Bt8NzIE12YowhIhXkXBTJUEGy10mWAZtKWBI4D6F7UG6i21dgU6mkxwpieZVRQth04pz0/NmwJnp4Pmh1bRx606UCXM4rRLAd2wwAgibrEJEMMZvFfPR9nIoNwndwlzOhJ9l9RsEBlqNNdGmOx+V/LXrE3WAwaAOw9P55fKW8Pe/SXwlwPOpRyvOyb2LpM3QFz5N0cYNF34ijibubi2XqbvKWBDgZ2jLTPszw7ITmuY6g0zobID7NVSkYXd6S11lfB+D0yPMT4jV91qP8eWIe+lCQt+I5uaF2Y31T4hpTHAHOjjxHO4VY5rbHCHrPEXG8UBZLbipAPWhTPH+uKmFHOCO9RMUxv6HBCBsCqJFKqrhK2BGi2SvG6fzrcalbzcJCxzRAM+jAqYhmXK0yjhMgmn1BblaRVZqwIYDGCeF6+dpBfg66mIgm3V+dRm5S3hktYvmmvv1sEwA0iHqUKpL2/HlPM/RpIpqdRG5QWSzfQiwB2iUEuNusoCRmO8qu2mboCnJT8oxDIXM0MxAA1oHNpvOiWRoI2rPNsG7K4Q16g+izBFgvPkVckVczDgQhmutGV3S0m+FNf7dNALBGbPQ8iGaRwZ3QvnXhY8Bs4SY19TRtEwB0AF0vSJ5LW2RNkxEjmmvBzw0vXH15g5FCH6CLhOD2IJrRdMzBNkPTmKv/VukG8MYC6DC6bG/peTXRpEXYODoCJxe6lKItu2ibAKDDqECWBVONAdoG8ctKJNnLpQvOqBtAj6iE/yXebpNmsSF0fngultPsSSsGgB4hz6+fYBJjNHWFSmYD1YwO6sRkGmIvc4EB+ss4dVfsWSZGs24sNMGHJOhgjwbF2iYA6CFh3nk+hdJyaTIItDI6N1VE8hf2FvpAR9tsEwD0mDAbqAg38j+Lc2Sb4SzIhfxucUGzL1sxAAyAfOQ8Xx/I3SCP5hnRkKFcLEU46bcEGB7Fc54v30t2o9MSAl3n0bP8pTbNbRMADAh1hHSk3ByjONWZySgnRfs2tmwmTxjsIVUbwJAJE1Ly7EbeGK84AeFtk/0ov3DMEQfYCNQxKgumCihB7Q9hPJ0/mV+0qfumFQPABiDPfSWoXYx1gY5iIbfly4yWAWweOugTNCAfBLpgmyCi4jhKXL6+McHpAJtJJajdC6a7J8b6XGXGyeyrxQUiVx7AJqMB7F4P8vjMbN82QX5xwgW6bsUAsMGIl7mrmpCvqsAAcBgVF5F8xV+YxD3A9QYAJXTTZbeiM6VN842Px96ezv9rvCBbifvvVgwAkA8EF6Pm7opt2jx0YEe8y7gw0i3CBwBgkWLUPKSC29iAdvnH/XQoNVLVA8AybFmaUlYjda42LORQLkCxvkfi/saKAQAOIU3x86YXb4dPt2ubhk/IcWkxl0n2axJrAMBx+MHhNNs30QzdeJuSO3M8zf7K/nFiLgHgRMTwQ3G24rjH8KdNlifYyz/+z1YMAPBQ8thMy2amTXXbNDyIuQSAVajGZjrVkeHGZmqkfvhH/RuCCfUAcGry2EwbOR+l2UXbNBzUu9yaxIEed5uYSwA4K+JwxYxGw/Qyy94lc0IBYBW0Oy84X9nwvEy8SwCoG/EurwQnbGBeJt4lANTNIL1MvEsAaIrBeZl4lwDQFIPyMvEuAaBpBuNl4l0CQNMMwsvEuwSAtui9l4l3CQBt0WsvE+8SANqmt14m3iUAtE1vvczRJPvXcOJ4lwDQHoe9zI7rT1R5b3iXANAihZfp3rHPx21TNxkl86+EE826r+4AMDhGqfOLK4oGqT1lxd1DBVJO9E09WXGJL1sxAEBriEieCxoU1jLX5bxtU7eIiT29bcoCRQDQKUJWdndvnLj3VItEQLuZrFxO7nl/gmn2UysCAGgd0aHL3nELgnnLiruDxjyN07k/we1p9gUrBgBone3UfcIE04cY6e+2qRvISe34ExQ3uPcplgCg94xTd8NEU61bYyriXdpKbtkzVgQAsDZEi3InTvs0O+PIldca35pkn7JiAIC18djuwUdUk0Y2Wt6ZuPBR6v7Wn1iSvUnsJQB0BY3DDM6cU4du34rXh8VePggnlSVWDACwdnSmj2qTOHVx5s8jtmk9yAl8zsRy/ScDAFBCHTrtv8w1at0JOUYT90N/Mol7xYoAADqD6NNeLphJdmtt3YYaUb89jcp9/U+sGACgM5QGpcPgj/xum9plNHnx03YiHxB7CQBdZSEmc8eK22WUZn9tJ9C9qUcAAIZolDXLNU/mmjIYyQm8oSehwmlFAACdI46We73yQez7H7ZN7RCDQv0JSNPcigEAOkcRxO7e18/WJ9iMJ7PPe8FMsvcIVgeAriN6te81ywtny+FFcsB/9AdOsn+xIgCAzqIiGQVTrN1ZP3JwHzk/Tmf/04oAADqLNsO9k5dmvlmuzXTb1Cw6o8dUWgVzPTFNAACnQAd6vGYlmWVib2mBtNGl2Z/bge/TfwkAfSEm45BPdfj2rLhZxom7rgfdTt33rQgAoPOIboUcmelcRbP5+HGfnchc2nHqvmjFAACdpzRN8r5+aveibWqG0gGbPxgAQI0sZi9qPKmwuLGXglhmb1kRAEBviP2YwdwVK24GUeRX/IGm2T9YEQBAb1CvMgqmiOdtK24GOUhIkTSZfd6KAAB6QxEW6fxKEY3FY5bnj29Nrn/UigEAeoV6loWWNTSvfCtxYz3ASLxMKwIA6B2j1D0bBVOsmfyY43Q+DYLpbloRAEDvKOaV62qSDQ38yI59wLq4s9+0IgCA3iEads68SxXMG1ZcL6PEhXb/JPtTKwIA6B35wI9Nwqk9oXA+cV2MgHUA6DN+xqJqmSUUHifzj9umeiiG4lWNSbgBAP1GtOwgaproW72Zix67dPCHfsdpdseKAAB6i+jZ5SCWXjTrHSnXRMG6c2nzv2xFAAC9RYTygtc0P1Jec6o3aeM/bTt/2ooAAHpLMVI+177MZ624HtSz1J1vT7NLVgQA0Fu2U/eJIJi+WV5vbsztNLvjd3zp4A+tCACgt5SmeltoUY2D2XH4nZAiABgKXtPytcpryo/x2T33m7rDoMI1B3gCAKwJneUTta22BR3HyQu/rTscpdkDKwIA6D2jJLsaBbO2WMytyewzJpjEYALAYBBd2wti6e2cFa/GaDL7ku20+VXWAABaosha5K2e4PWtxH3FdnjdigAAeo+KpGmbtqAvWvFqyI7+PuzUfc+KAAB6jzbDo2CK1TPbR3a0b4L5DSsCAOg9OtATBVMHgKx4NcaJ+7Ht8MtWBADQezSUKAjmXPXtKSteDWmSvx4Ec/bnVgQA0Hs0D2b0MDUm04pXQ5Q3ZFpPZk9YEQBA7ymvhFubYMrO3gw7nP2BFQEA9J5GBFM8zHu6Qw1gtyIAgN5TFkzRuXrizEV5HwTBfPE/WREAQO+pepjZB1a8GggmAAyRuBgaggkAcAKaEEyfYBPBBICh0YRg4mECwCCpXzCTkMIdwQSAoVG/YOJhAsBAQTABAE5IA4KZvas7e+xS9rtWBAAwCKJYjhJ3z4pWQzxMZvoAwCCJgik6V9fUSOfXJB9PZp+3IgCA3lNeEbdGwSRbEQAMj2aSb8R8mJPZl6wIAKD3VJJvpO5ZK14NEUy/2LkuhmZFAAC9ZyFbUU1LVLCmDwAMkGrG9doWQXPfsB0+b0UAAL1nYU2fC1a8GtvT7JLuVHY4tyIAgN5TXjVSHMPzVrwaW5fcF22n9WQkBgDoABr5EwVTxdOKV0MD1sMOs7esCACg94iu7UTB3E7dJ6x4NbZ3Zx/zgpm6960IAKD3iK7tRcEUD/MRK16NcjS8/mzFAAC9Zpy6K4W27X/YildHvUuvwtMf/o4VAQD0mnHiXvC6NnF3ragexkn2S93xVuL+ixUBAPQacQTfMQ9z34rqQXZ44HecZF+1IgCA3rKQeOOKFdeDuK5/Z4L5f60IAKC3lGf51Ba0HhHX9aLfcZq9akUAAL0lhkuaYJ6z4noYJQcxIr6erMQAAGtEtKz+GMzI1uT6R+POax1+BwBYA6JlFoPp6g+X/Ozejd+Iglm7GgMAtMwocc+rnklz/E0rqpfxdO5Di8bJ7L9ZEQBALxkn2X0vmGl2zYrqZZzOvxcO4L5jRQAAvaPcxSiCedGK62WcuL8IHmb2b1YEANA7tibZp1TLtqfaJK8pS9Eio8mLn/YHSbP3tE/TigEAeoXGXeYeZl1JNxYpR8Y3dhAAgIYZT903Vce2Evduo85f7CgV27EiAIBesZVkvwo65pwVNYO4srPgYWYzKwIA6A3VOeQNO37jdPYlO9AD+jEBoG/oII9qmA746CJoVtwMxSprLRwMAKBmxtPsr1S/RDibd/psxs8DL5hT95dWDADQC8ap+3kQzJaWDZeD7fsDkrkIAHpEjL/0lsyesOJmkbb/F+JBScQBAH1Ac2BIM/xe1K7WQiP1QKWDNhMlDwBQEyqWolcxJFKb4w9sUztEpZZm+V9bEQBA51CnLgplLpjpvN3uRDnot8PB3c+tCACgU2g/ZVkoc5u4P7OvtEM8EY1lemz34CNWDADQCUSfdjQ5cEUozVrXLD1gfgJtjTYBAJwAEcrdskCq5d2ISfa6fa1dYjyT2LetCABgbVicuC09URHL58XWGz+uAz7+BBL3thUBAKwFFUvNnl4WSjXxKK+Np7Pfi79rLKb9SbtURp+S+cetGACgVTQefJxkz+V6VNheENKwTLjYg7XFjlf6MVO3a8UAAK3hxTJ11wstym3PvqIDQD/RMnHyvmdF60Fc4MxO7n7jE9kBAEoEp232qmlQ2fK0bZXE55MXP23F66GIc5qrejPrBwBaQfTmEXHYbkYxzG0haidfiyzN3l67U6fqPUrdu3ZCz1gxAEBjeLFM3F3TndyWOW1xefDOzEqM62OoEcQOAE1iSTSqYplk95eNfo+m2e/E7+jSula8Xiopk1jrBwAawrQmT6KhNkqyuyqi9pUKsv0f/Xek6W5F68cP2yfuF/4fSNxrVgwAUBva3BZxzIXSC6F4mmJL07SpLonn+Z5+T4T2T624G4iCW5zT/IOj1B4A4CyMU3e+LJRqo9TdPK6ZPZ7M/ih8L3u/c3l7VeXzf2Y6f9KKAQBWQjRlJ9eWwl592HiJeJcv63dFML9rRd1C3gL/pCcYFkcnEzsArIboyaF54Rqk/jB9qUyqmc5+z4q7xSjJzukJaso3/dmKAQBOhe9/TLPLuehFS+ZPn8QZE1Gdhu+7u1bUPfQfyWMyp+6frBgA4MT4QWSfRGNeEUtNonHSwHMRTAs7mk+tqJuMp9mT4USdjmC1s8gQAAwCdbqOS6JhXzuWcmaizseF22JD9k+6K1YMAHAsYc73siQap0vsI06bF9xROsusqNuI6/x6/GfxMgHgYYRBGvfjQiRzO9VEmN//X9l/GCfu3/3fTrPfteJuI4J5QU9YB3/wMgHgONSpGk2yn5VE0ttZBo7l776jf7s9dT+1ou7jE3Ik7p3iH8fLBIDDeLE8YRKNh1H2LqU5/pgV94M48wcvEwCWEZJozCrzwjWJxllnCsrf98+7jOBlAsBRbE1mnxFdOJREY5zOHrWvnIpee5cRvEwAWESb26IHuVAGsTw6icZJkH3017uM4GUCQBkRylMn0XgYg/AuI3iZAKDE6JmquZdWDS6X/fTfu4zgZQKAPPtnSqLxMAblXUbwMgE2k5BEw12pCqU6TjovfPWMZrKv4XiXEbxMgM0jJtEIjlJFLK+edF74cQzSu4zgZQJsDpZE44WyUJrt2VdWRvY1PO8ysuhljpP5x20TAAwImxd+KImGOk32lZX5z1+7/h/lGMP0LiNVLzPbr8MtB4DuoGIpz/nNKJIlq3U1WTnGi7pf0ZLurAZZN+Zl3tN/dORXf3PnbRMA9Bwdm6gricZxyHE+l++/LxmJzso4mT1RupD3OrO4OgCcGe1iEyGrJtFIsvtSduokGsfhR91lv+EY7mkrHjbyz+6Hf3iuovmUFQNAD/FJw3MRi2I5O3MSjeMQvbim+5fPzVloUV338sWt+y0EAO2gz648w4eTaDQwqDuezj8Zj7GVuD+24s0gDgDZBb6t/Zu2CQB6gIllLpT2LN9Rh8i+UhvWFP+lP06SvWzFm4MPak2yW+FC+8wll20TAHQceV53wrNbEsvU3Wxq0bFxOkv8MTRQ/S8PfsuKN4utSfapcLFDqqcm+jwAoF7KrcPC3PWmxHJ7d/Yx2b+PuVThtOLNRC6En2eqsZnqcRKbCdBd5FndW1wvXMWyyQEYOcYNfxxpkm+8PizGZurbyzYBQEfwfYgNJtE4itHk+p/kx5vOP2nFm005NtMb0yYBOoMKojgyh5JoqIA26fEFZyp7YMf7thWDIhfEYjO9HdA0B1g/PonGknnhYrUl0TgKaXn+QI8lonl/Y2IuT4qGIrR9QwDgaCyJxksLz6UK2AX7SmOMv+K+mB9vkn3BiqFMMfpmI2LSVLdNANAibSXRWIauHBmb/yLOMyuGRULHcnagFyqMmrt79GcCtIu29raS7I4JZG5S3viMPBsE9nPSRSzfaSpUaTBoMg4vlP4maXymu0H/BUA7qHcXBSu3JLuv64jbVxrDHKZ8LEPjtG0THEcMaB+l7n3/SYIOgMYJSTRmrSTRWMYomX+lOG72P6wYTkLsz5S3nRdNscb7TgA2FW1uyzPWShKNZYwmL346P26afd+K4aSoe66eZfkG4qID1I88Z+fKz5malP1MRLSVxQp9N1yaheVrpjqbh0Q8Z8ICVy1Bh7+Jt+kEBqgPea4OJdEQ+3Fbz1lwjNxr/rhJ9h6DvCuindDxRopgar/mswS1A6zOOHW78dkqTOeFt+fhjRP3f+Kxt6fEW9ZCnDopbnvszySoHWAF9BmyZ6mwxL3QZkSKCmQ8tjhCf2vFUAfy5rOJ/7a0Zs0LKwFsAjY2cDUKVTQpu9Zmy02b3tupNMH12Gn2E1qNNRPmtIag9mhtxIYBDAX/DCXzp8vPkNnlNgVLB5PEm31bjy1C/Q4LITZENahdL7a7R9JhgIcTHI71JNEoE6Zcup/G42s4kW2CJhCRzNcR8YNAiCbAsahIiVgeSqIh1mpssz+POCIuJs/vl20TNIneaH/RExf6QEQ0xVqJGQPoExbjuCSJhjtvX2kF9XDlPH6UH3+aPWmboA3k7XTBX/hcNLPbiCZAgT4Po8nCvHD/rLS7rLUXyyTLSsf/FoM8a0Auvg+NGKXzd8ONILAdQNFuKhGmJUk02p0tp8JY7jsVL/O7iOUakZtwOdyIIJpyc24gmrDJ+CQaC/PC20yiEVFhHCWzb8VzELHM1Nu0zbAOwk3J48qskiCasJloczsKVDR5Pu5q89y+0gr+uUyza6Xz+BFi2RFMNGOijvhm3ecGwSYRZ8SVbZS6m22LpTJO518vzsO9hgPTMVQc5ebE5KOIJmwUUtd3RJhMoHJ7dR1CJcfdK5aYcL9ALDuKiaafDSQeZwxwRzRh0IhQHpFEo/16L8fO56jLM/jWOrxbOAX6NtM+TH/TksxPvxI74C0HQ0O7oqRuL0mikT3XtliGc4n5Hvw53Ecse4KKo7zdfB7NUZr92n8m2W1y7cFQWDKo4k3qeatJNBRNByfHztfiUbFk9l3P0LebF8lwE9/UTym7R9Z26Du+60m8yFygCttrWyx1JpF4lq/k57CG8CWoiXLzXMQzNs/1prLeOfSS0E+//iQaiq0wmS/HG36ePWqboY9oBdMs7eGG5gNBYm7XvgLQC4IDMHu1qMO5tb5AoIjj42JhHR5v7hX5nT7LIbDYIT1Kszgr6ErbTRiAs6BiJPX2cBKNNbSW5Lk5v3Ae+yxcNkCkwvmle9VK3iZhR9BpvFguzgv3dbjdJBqKHHdPBLN0DtlVnI4BIze4vKToW+HT3SDrM3SRo5JotD8v3GccWljagm6tjUBHyqUSeg9TvE4vmlIZbtNhDV1C66nUzUoSDamnd9sWy9B3WgobUmPgdLMIzZw87Mi/wVVE1QO1rwCsDW1uS10sBCrUz9aTaAQPN3sjP4fUvcNaWhuKvTnjVMryiN8V+jVhXSwZVPFJNNrsNtJ+yXKffzgHEU4mf2w21jcTMh356Vz5zKBbNNGhbaTuheVXqtZqEo0QjB4dibCsNf38kBPCjkpJA9KsWNUuyS7Y1wAapVwHC2s3iYbU93PaNVU+B3UoaHHBIbRvRipH7Nf8lXqcvsKk7tk23/CwWdgL268cULFk/nRbQmUtrYVRcLV2F0uDnqHCGGcGeUvcz/RThZTObqgb6yu8Nk7nFaFS8WorvjFMccxuielx8yY4/ZVwYqTihFUpQ+X1mY/MWk9wAMNEvTppxbxQqlt5HbOvNIoX61I9L9llmuBwauKbVyuReAG/lp8t0D074O0LqxBSoi1LotFOMLgO4FRaUmLadynW+uwhGBCLfTtxQCh0jNO/A6cnhLO5H8c6VbJWkmioKEqdvi3noF1O1gTP9hkFh9rQmQ356GGS/ZtVMl/RCD+CkyJ16JHRJPP94mUTAWt8woQ/drFYYHHsNLtINxPUjlY4qWA+Pi2MoM9LfZvuCiPpcBxBsNpPomHNf7/ujwimHu99+/kWyX6hUfRNLJWtHC/3E6l4eUZ3+dzhbQ2LhCmGs8q8cH3pNi1YoWWUh8rlJmVXSckGrWFzbHMPc5S6F0uV8RYhSBDRuiD14lASjSa7crR+ynFCa6h63Nti5EuA9jFvc8c8S3sIsjwjto5CyjayUG8w2tz2gytWJ3y9SLI7TdULP/pdHqRMsgf5z76vknAhWDM+2L08SyJxr0lz61f576nbpfmzeci9PzQvXF6iN5vo67Zojgvx5S1WEkpe3NBBljSDDqSi+ixIUpk1jOM8/ZubgYpXqR6YuZeaEEs51jmx8uQKb1pG1xB0mtBMd+fjm17e7iqYuYj6ip3MnkA4h4vc51aSaEgdk+Z+kdhXmtzeq9S6p4JN8xt6QwjlqCRU0Lm6P4m/y886crlDU3042MsyX2yvdK+v1SVeegzZ3zk5jl8+2qxofifZVQLQobfoSKhU5LKHORtN3A+L39UTdbvEcPYbL2Rpdm17motYLmB1tCZUcGV/O7K/IjKjumz0jaZDlABaY0k83KvSXP9+6Xe1PRFQOud7hhezhpJoaAtER7eLuuNH3N+Oxwjl9I3DAAkPlhfOkpfgfi4P23Pxd3sIrjLdsh9oy0AE61ASDRU5+8qZCPv1L9CyF1kWSq1DO/RTwkYgD4J22Jea6u6OPGT/Tz/zstQ9qysH2p9Ax1BRk3t2M96vkp05iYbc/0dEGEv9oE7rRqXpLWJ5Do8SNhKbMZQnRBglMx1V368maNBkrrMn6OfsDipsW0mWv9yiSfmp54Wrl6h/V6kHafZArLQwn2YTIkQIwBM8i8VlCtwPxMvM1xdSC0HI6mEwur4uNBeq3K9qEg2/gN7JxVI9RJsyubg0hYpkedT7KQZzAI7A+sR25eErN8NekgfyefksexxafkUfUppn7eEnJ9haT7klsxMn0dAuFvmbPRHC0gCgNLvT7PXid1+m95YBQICTYHGclTASNXkwvz9OqoMMJq6X6e9sFn05yXU+nETjIdn3dbsIoLwEq/dS7A0R39JAjr+Pe3S9AJwR9R71QZWHrbKin5Spt/n8aJL9a7Xch5nsMspeLyaW+XW2a31kEg1LgnFB7kU5wFzzDNyV8rjUSbT9MPuLbhaA2vAxeX6WRzEdTk0fXPmUJnuRKSmYuyFNvYvaXKTZfnbkWp4oiUbwJP13K2nVgkAuJg72QrrDrByAFgh9nYcfTnkQXxsl838Wz+fn1XL/kOuA0QUE9OToC2fxOso1vh6uv5/Fpd0mT8n1LvU5iyU+ZvKNcpl8T5rkvn+avkmAdaEPYHgQF/rIEvdyeJizWaXczAuoCIL2fRIAfZhwXYsRa29hPadnKmVm8v3X5VpXFjczId2jfxmgg/hR3EOjsOHBlbLnvYCm2eKUzGj7CGhAPfDxdP55Ecj3llwnb/LC0WQqP5JrutgnKeauaNgQnjxAD9AHNcT5+cWvFprtuYA+J5/fOk5A9cGXzx0V4qH2t5Wb12J76nnb/6/NaP+pSTVG6ezV8dT98AiB1D5Jncr4ON46QM/RAaOTCKhs//vQ17nQJ1cyExQNuN4J+5w92nWR8B6jnKfFQYow+i6Mw32PZUtmrwSBXPadQiAJAwIYOA8XUL9Yljbhv6kiKmLzjHy+tPi9JbbvhSgMlqjHlouqt4fELJ4W9Xrjvq07wh9TzuFCOI/CWzzaZpqrVK+B9k0eyM+/rG5XQyABwHiYgEYTMbkVmvDuGyIe0pyf/W/7vRpv2DGT8/6FfGo41g/kXL8jn/o/LgaSlwyBBIATok3s4BHOnlBv0XtrCwNJi6bb5bvq0ak3+g0VJi+qyexrUqZipfZdsSMF+TQmx9LphH6/cmyNBNDjqhg+I9s0SbNuW/q3ZdP/Tf5OXhTuvP7PBJADQC3kQurFxTd9r6rgiDAe3Re4ZvNCHgRfZ0v5Jrv+D3iOALBWwmwXFdQoTGpxgCXa6uKq+6ju06/S6I+3dcl9UT1jOY8/COfSbwtdJeXr2X+T+2Uv2oGYtMLsEQhoM2XZzTzOuNHdN/mfamkeY9gmmz5LJpUB7fxe9kUMw7BNNwQT67OF0KaB2NgmDwzJQjzs8pZpH030sZofQGPclt3M44wb3X07dKMBYAU+9KH/D9X5N/LyM0vLAAAAAElFTkSuQmCC;" vertex="1" parent="1">
          <mxGeometry x="-25" y="87" width="96.7" height="90" as="geometry" />
        </mxCell>
        <mxCell id="yX0KzCqddHvq5yeCaqTo-3" value="Expert&#xa;" style="shape=image;verticalLabelPosition=bottom;labelBackgroundColor=default;verticalAlign=top;aspect=fixed;imageAspect=0;image=data:image/png,iVBORw0KGgoAAAANSUhEUgAAAG0AAAD1CAMAAABtE4tKAAAAAXNSR0IArs4c6QAAAARnQU1BAACxjwv8YQUAAACKUExURQAAAGCf32Cfz2Cf1ViX11mZ0lmb01qa1Vub1lyb01yc1VmZ1lqa1Fqa1Vua1Vua1Fuc1lub1Fub1Vyb1Vub1Vub1lub1Vuc1luc1Vuc1Vyc1lyc1Vub1Vyc1Fub1lub1lub1Vub1Vuc1Fub1Vuc1Vub1Vub1Vuc1lua1Vub1Vub1Vub1Fub1Vub1vxRwtsAAAAsdFJOUwAIEBggKC4wOEBIUFhgaGpqcHiAh4+Xmp+lp6+3t7/Bx8/V19/n7/H19/r7VtqYlQAAAAlwSFlzAAAXEQAAFxEByibzPwAABvhJREFUeF7tnG+XqjYQxgW0+L9FLtaC9UJBWm7nfv+v14RkV10JmSRDzqnH36vgrgwMk+GZiTAzYbFKTxdBnm5i+ekUhNu8hS8U+0j+lZRoX/C91+d0uxJs0qLiH5XJQv4PFZuS7/eSzOX2B9Gu6PgxJHKbguUFoMt3odx8JNicmH+bjdx0ZZ4DXHeB3BpkzVxaruSGC2HWQZuO2uLsrixinK9fzPZyxIRdkLbQ7eSGJdsOSuykik4A3+TYigNArnXijYR50+DfHwlYeKRyjGPTQvV1kiCJSui2cowlbuBqlc6C0uaLYQmtzdnl0Nh8LThDbX7tDtDZZfiwgUIO0WwAbHPRojWMrVncmX7jjrXhkUYW3riDXQWTJJZBZT1LOTmc5QjBvAM3DRC1Br4snPzISaCSIy0xdJbp55Pgij65AjI5sieBK+7Kr6Aj0FEV4LRK6TDVbmxwJxdB5xT9H1SwlqMxds4BKUjhKEdjFOCoLiQxXOVohKADIq3dwFKO1KyhlCNXMkS0HUkikrOCWo7UNI4p8kbQgi4lLaCRI3dO2nhbE8U/56AVs4mb3H1gA7kcqTjCXo7c+U1727kARWHECTJW1cmxigtVSM55NfuP3FDRaKMWB6sIOHJLBZG1b9wUq5DkpoorhTVWr7DieTXzcm4r7sULy+1aayU4F88p9yJPtgF04hMlzjMgujBbbb+TuXYG5NbFhmB5ZcZKcYdcaG8CBzjIkRUsDG+lvj7nbrW5bYTwzL34KX4SrS6N8ZL6CeHFW0xn2pzrIEsS3l/L7tRho484W8kV8oZiex9iC4TospSTccOMPfZKDnCSIzV2UnnPvXh8/GKJmUwlSlE/EObci186ObjDxinqe+Kae/FrxsNdkthUde24F09P53HGhVtjlLyCE7M10JhkBS5qKiUmraMF92I9cN/AFrhBjSwrGVt+KxtqYWJPDV1WsuM6ci8OpqcSX7tXuBvBnC8+1IMaDX3AjDXKDb2syocXCbA1fk+hTzpcnEKn2Ofe4NTYNe50x9aL00ZRfK46s9S+hW70brHmXiyGvTibX03bO9loe7gXp6qzDyq4yCGaM9SKQ5fiVFnC59CovqkkrFU9xhUXBGflDg1boZJ5O7xw0YtT9XxkqstKI7JIqJ6mXcjFKZP4CniOtpSIAwsXvaziEn+Y0GJ55JOogu7BLb04VfdTFg20+v6PEr5udHNML07VXuxd71YhsZlVy9NbclklJf4AMbui6khFsmFX6sLd04tTZXuDL652BD2r4MCyVPFLL05VaowvrkKGvH1qCL+xff2t9KJYgs7da9oP+JIo/Pz+tLjO/iKW1y9UrThBtP+T7RTqdHeLyeU25XN9gp8OMIZ+FDHZzyJ6Vunxwj33kxu65Ona4BZtD1XLCMcrW6vdmzgG0LUxMbytUVE4tsPM0C8sUPK2RkXq1sY0JCVbpcPwytYSr9Z2iN4jHW9rVKxdlg2MWZk3KRx4ZWtLr9bm9ss9vILwhW9rFugXKSkJvVqbaZd7SbG8Apa8srXGs7V3mU9D7dXa5d1UIMKvtdyrtdO7qUCE7zL/3VSg4bXL/HdTgQa/1laerb2bCjT4LvP/J00FC/wW3n6tBZ7LfL/W3mU+Eb7LfC8/GpC8cplfeS7z/Vqj/XHOOO8yn4qTZ2vWP1204A/4VY588Ne/P/x1TObww6PqyuD3K+I5YBqCFuID4aOp4yRMKkedr45oxZtqGcHbAjCs+4eWFiSvC9BTiJ+0F14aQnN5Ukujhw5syT4eR6oInypWwcNfjDYeZjgPfwn+dRfW9OEvSExeVGKFCH/BzalTIcNfkE3cN/kIf0HUTTvDP8NfkE+avr5eqRjaCWf4XfgLziaPTJlyF/6CDeZdHpasn6v7J/t0PIS/YD9Z+mLh//ToRjCZQBm8XU8lUIYT1VQCRZGEJxIoivCbRqAMhL+gmGLlYyD8BVMIlKHwlxg98YljJBjoBcrofZpcoIxqkKdbgyuj2ZdaoCjDX5DRpi9l+AtoBcpI+AtIBYo2F8ZE7yzjIKKAUKAgJLjJ8+oaMOKDTKBowl+wo0pfmvAXMIFC0mnThr8goZnhSCnABApB+kInQRKBgq5AH6stS/ChTSBQUOEviN1nOCr8Jc4CBRn+AmeBYhZoZm92ecJQAzgKFMMGDEtfLjPcNLM7CRSD8Bc4CRST8Bec7NOXUfgLHASKTZ41d4eEhb95kWstUOzuj7YCxe57lgJljXit6QCWAsX2eltdABb+dpfbSqDYywyLb1qFv8BCoLjIQ3OB4qLrjQWKZfhLTAWKdbrrMRQo1uEvMRMorirbSKA4hL/ASKC4V0cmAsUl/AUGAsUt/AV4gXJ0Cn9BjD9iivfXPN/kZrP/ALpi5T5SayA4AAAAAElFTkSuQmCC;" vertex="1" parent="1">
          <mxGeometry x="233" y="-80.91" width="40" height="89.91" as="geometry" />
        </mxCell>
        <mxCell id="yX0KzCqddHvq5yeCaqTo-4" value="Client&#xa;" style="shape=image;verticalLabelPosition=bottom;labelBackgroundColor=default;verticalAlign=top;aspect=fixed;imageAspect=0;image=data:image/png,iVBORw0KGgoAAAANSUhEUgAAAG0AAAD1CAMAAABtE4tKAAAAAXNSR0IArs4c6QAAAARnQU1BAACxjwv8YQUAAACKUExURQAAAGCf32Cfz2Cf1ViX11mZ0lmb01qa1Vub1lyb01yc1VmZ1lqa1Fqa1Vua1Vua1Fuc1lub1Fub1Vyb1Vub1Vub1lub1Vuc1luc1Vuc1Vyc1lyc1Vub1Vyc1Fub1lub1lub1Vub1Vuc1Fub1Vuc1Vub1Vub1Vuc1lua1Vub1Vub1Vub1Fub1Vub1vxRwtsAAAAsdFJOUwAIEBggKC4wOEBIUFhgaGpqcHiAh4+Xmp+lp6+3t7/Bx8/V19/n7/H19/r7VtqYlQAAAAlwSFlzAAAXEQAAFxEByibzPwAABvhJREFUeF7tnG+XqjYQxgW0+L9FLtaC9UJBWm7nfv+v14RkV10JmSRDzqnH36vgrgwMk+GZiTAzYbFKTxdBnm5i+ekUhNu8hS8U+0j+lZRoX/C91+d0uxJs0qLiH5XJQv4PFZuS7/eSzOX2B9Gu6PgxJHKbguUFoMt3odx8JNicmH+bjdx0ZZ4DXHeB3BpkzVxaruSGC2HWQZuO2uLsrixinK9fzPZyxIRdkLbQ7eSGJdsOSuykik4A3+TYigNArnXijYR50+DfHwlYeKRyjGPTQvV1kiCJSui2cowlbuBqlc6C0uaLYQmtzdnl0Nh8LThDbX7tDtDZZfiwgUIO0WwAbHPRojWMrVncmX7jjrXhkUYW3riDXQWTJJZBZT1LOTmc5QjBvAM3DRC1Br4snPzISaCSIy0xdJbp55Pgij65AjI5sieBK+7Kr6Aj0FEV4LRK6TDVbmxwJxdB5xT9H1SwlqMxds4BKUjhKEdjFOCoLiQxXOVohKADIq3dwFKO1KyhlCNXMkS0HUkikrOCWo7UNI4p8kbQgi4lLaCRI3dO2nhbE8U/56AVs4mb3H1gA7kcqTjCXo7c+U1727kARWHECTJW1cmxigtVSM55NfuP3FDRaKMWB6sIOHJLBZG1b9wUq5DkpoorhTVWr7DieTXzcm4r7sULy+1aayU4F88p9yJPtgF04hMlzjMgujBbbb+TuXYG5NbFhmB5ZcZKcYdcaG8CBzjIkRUsDG+lvj7nbrW5bYTwzL34KX4SrS6N8ZL6CeHFW0xn2pzrIEsS3l/L7tRho484W8kV8oZiex9iC4TospSTccOMPfZKDnCSIzV2UnnPvXh8/GKJmUwlSlE/EObci186ObjDxinqe+Kae/FrxsNdkthUde24F09P53HGhVtjlLyCE7M10JhkBS5qKiUmraMF92I9cN/AFrhBjSwrGVt+KxtqYWJPDV1WsuM6ci8OpqcSX7tXuBvBnC8+1IMaDX3AjDXKDb2syocXCbA1fk+hTzpcnEKn2Ofe4NTYNe50x9aL00ZRfK46s9S+hW70brHmXiyGvTibX03bO9loe7gXp6qzDyq4yCGaM9SKQ5fiVFnC59CovqkkrFU9xhUXBGflDg1boZJ5O7xw0YtT9XxkqstKI7JIqJ6mXcjFKZP4CniOtpSIAwsXvaziEn+Y0GJ55JOogu7BLb04VfdTFg20+v6PEr5udHNML07VXuxd71YhsZlVy9NbclklJf4AMbui6khFsmFX6sLd04tTZXuDL652BD2r4MCyVPFLL05VaowvrkKGvH1qCL+xff2t9KJYgs7da9oP+JIo/Pz+tLjO/iKW1y9UrThBtP+T7RTqdHeLyeU25XN9gp8OMIZ+FDHZzyJ6Vunxwj33kxu65Ona4BZtD1XLCMcrW6vdmzgG0LUxMbytUVE4tsPM0C8sUPK2RkXq1sY0JCVbpcPwytYSr9Z2iN4jHW9rVKxdlg2MWZk3KRx4ZWtLr9bm9ss9vILwhW9rFugXKSkJvVqbaZd7SbG8Apa8srXGs7V3mU9D7dXa5d1UIMKvtdyrtdO7qUCE7zL/3VSg4bXL/HdTgQa/1laerb2bCjT4LvP/J00FC/wW3n6tBZ7LfL/W3mU+Eb7LfC8/GpC8cplfeS7z/Vqj/XHOOO8yn4qTZ2vWP1204A/4VY588Ne/P/x1TObww6PqyuD3K+I5YBqCFuID4aOp4yRMKkedr45oxZtqGcHbAjCs+4eWFiSvC9BTiJ+0F14aQnN5Ukujhw5syT4eR6oInypWwcNfjDYeZjgPfwn+dRfW9OEvSExeVGKFCH/BzalTIcNfkE3cN/kIf0HUTTvDP8NfkE+avr5eqRjaCWf4XfgLziaPTJlyF/6CDeZdHpasn6v7J/t0PIS/YD9Z+mLh//ToRjCZQBm8XU8lUIYT1VQCRZGEJxIoivCbRqAMhL+gmGLlYyD8BVMIlKHwlxg98YljJBjoBcrofZpcoIxqkKdbgyuj2ZdaoCjDX5DRpi9l+AtoBcpI+AtIBYo2F8ZE7yzjIKKAUKAgJLjJ8+oaMOKDTKBowl+wo0pfmvAXMIFC0mnThr8goZnhSCnABApB+kInQRKBgq5AH6stS/ChTSBQUOEviN1nOCr8Jc4CBRn+AmeBYhZoZm92ecJQAzgKFMMGDEtfLjPcNLM7CRSD8Bc4CRST8Bec7NOXUfgLHASKTZ41d4eEhb95kWstUOzuj7YCxe57lgJljXit6QCWAsX2eltdABb+dpfbSqDYywyLb1qFv8BCoLjIQ3OB4qLrjQWKZfhLTAWKdbrrMRQo1uEvMRMorirbSKA4hL/ASKC4V0cmAsUl/AUGAsUt/AV4gXJ0Cn9BjD9iivfXPN/kZrP/ALpi5T5SayA4AAAAAElFTkSuQmCC;" vertex="1" parent="1">
          <mxGeometry x="-82" y="-77" width="40" height="89.91" as="geometry" />
        </mxCell>
        <mxCell id="yX0KzCqddHvq5yeCaqTo-5" value="Facture d&#39;accident" style="shape=image;verticalLabelPosition=bottom;labelBackgroundColor=default;verticalAlign=top;aspect=fixed;imageAspect=0;image=data:image/png,iVBORw0KGgoAAAANSUhEUgAAAUwAAAE1CAYAAACMQ9lWAAAAAXNSR0IArs4c6QAAAARnQU1BAACxjwv8YQUAAAAJcEhZcwAAFxEAABcRAcom8z8AACS+SURBVHhe7Z1PjCTHdad19FFH31Y367TiUYe1QcCAIUAXXQSqqxorwrCMgS4mFgI8hiGjYSx2BOwCA0ML91RmSS0IawxAwx6tgPV4DFkUQWgpLi23OBVZTdGih9SIGlP/hjOkOBwOae57ES/yT3V1T3dXZlZm1vcBD9UdWZ2ZnRn5yxcRL158COAsjBL3yDidPaomPz8+TrMdtVGaXRwl2VOrmuxrL99nkp2Lxxon84/bKQAAdAMVpiBS7ryJVhSyD46z7eny8iZslLpn7bwuyO8726n7hJ7zZ/du/Ib9GwAA9aHCuDWZfUYFJwiiu1GIkqsIVDdtvqRMxDTJbkUxFfMeKkIKACdma3L9o0E8sstiB2WBOaXtmxipwF6R333TWW1rkn0qbz6f0YKnWOxT7HI8nnqV8vuyc1pih8VU9qFCetV7zjTvASDi+xmT2RMqaiISbyyKx9Hmbqg4yeeu/C4iqB6oemj7H7Zdrx31FvWcgkAXfafy8wleBHMVzvx3+zsR5tmjtnsAGDqh31H7HE8mkPKdQ81W21XvWehqUI+y1NWwaMsFVD1dmvEAAyEKpAqC2L1CAJabDZJc2GQh0JeCXAvrr11+nQ4JKNcNoJ+EB97tygP8cA+SB/2hnEVAxS6r98o1BeggfrAmzS6GZqWOXB8xMoxArszJBDSYfOe2fO7p9bY/B4B18NjuwUe0uS0P5JGDGAhk8xwloKPE/Xt4cYXQK9l+K3j+7hH7UwBoks/uud+UB++cCmF4MJd6kiqgOyqo9mfQEofvTzDx/t8v/x5aAhpdcP2j9qcAUAfqGYaphT6esfTQFabeSwibwXvpCke1AOQeiXhWXnT7GtqlYmt/CgCnRR84L4Lp7J3Sw5WbbNNBnT1tEtqfQEep9jGX76M22yu/XyFYHuAU6MMlD48mlig9SMHEO1Hx9COw9nXoGaUoBh0QWri/+edTDBQBHIM9SEub3fIAXdVmeZdm0sDq2Cyky3JvixjZJHsv/9lPMXWP29cBQB8aG83OBVJNfr+jzTj6toaP9lPbFNVyYhMRzpjcRMp9PyeRDrCBlAZyXikekGBS/rp87uBNbiahXpQGikoep7xEtRkvdYOXKGwAKoLqKZgoVoRSxVMeiHN4EaDElkesH/JzProu9eeetj4IHYNB4oXSBze7O0tiJ/cZxIGjOK5v22wPjxMGg4qheAOHPErxJhkJhRMjL9tHVBzLdShmr1ePUz6lqU7rBHqKzxSUZM+VK3gwTa1GgDmcDQuI1ymWpexTsame3dKmvH0VoPto80grdFGZg0llvkqfE9SF1rMQDG91rDo49BQvZeg0PjQkdee3kuxOeaEvqdQv0vSGplBhVIGM9a0inD4sjWgL6BgqiNsijHml1crqB3jcefqVoA18X7nPiFTUwVAPs9ti5+xrAOvDFg3TbOaVSip2mZFLaJsQ36vLiYT+Tfn5QalO7pN3ANaCNnOsYi4mxtgneQKsG5+4xa9TlNfLd0s/8zKH9lBBFKGshAmNNHNQMnvCvgLQCbSrSOpnPmtoOw39myKm0kxnjjo0jHqVsfIV5nbpWIcuo33pKpK+viblOeoa9E7dhZoJuSkXs2hrwgxCN6AfhHC3IvBdWkXWTNfEHnQjQU3o6KOGCsWKZpXsvG0G6BXaTI/epnyW+jap07ACNv97MZHvq7yNoe/4oPeFRdvUtIwBITg1flpj6l5aqFD098CgUK8yD0FKnfc21ftkeiWcGK1E4yS7H4VSKtRdRhRhqATnwEbSk7nU+zxp8S6TLuBIrJlSjl3TaWbPsRQqDJ1D3U/F9MoDBjbhEKEjXKcyWoURE/G8wBsWNgltSWmT3J6Bt8NzIE12YowhIhXkXBTJUEGy10mWAZtKWBI4D6F7UG6i21dgU6mkxwpieZVRQth04pz0/NmwJnp4Pmh1bRx606UCXM4rRLAd2wwAgibrEJEMMZvFfPR9nIoNwndwlzOhJ9l9RsEBlqNNdGmOx+V/LXrE3WAwaAOw9P55fKW8Pe/SXwlwPOpRyvOyb2LpM3QFz5N0cYNF34ijibubi2XqbvKWBDgZ2jLTPszw7ITmuY6g0zobID7NVSkYXd6S11lfB+D0yPMT4jV91qP8eWIe+lCQt+I5uaF2Y31T4hpTHAHOjjxHO4VY5rbHCHrPEXG8UBZLbipAPWhTPH+uKmFHOCO9RMUxv6HBCBsCqJFKqrhK2BGi2SvG6fzrcalbzcJCxzRAM+jAqYhmXK0yjhMgmn1BblaRVZqwIYDGCeF6+dpBfg66mIgm3V+dRm5S3hktYvmmvv1sEwA0iHqUKpL2/HlPM/RpIpqdRG5QWSzfQiwB2iUEuNusoCRmO8qu2mboCnJT8oxDIXM0MxAA1oHNpvOiWRoI2rPNsG7K4Q16g+izBFgvPkVckVczDgQhmutGV3S0m+FNf7dNALBGbPQ8iGaRwZ3QvnXhY8Bs4SY19TRtEwB0AF0vSJ5LW2RNkxEjmmvBzw0vXH15g5FCH6CLhOD2IJrRdMzBNkPTmKv/VukG8MYC6DC6bG/peTXRpEXYODoCJxe6lKItu2ibAKDDqECWBVONAdoG8ctKJNnLpQvOqBtAj6iE/yXebpNmsSF0fngultPsSSsGgB4hz6+fYBJjNHWFSmYD1YwO6sRkGmIvc4EB+ss4dVfsWSZGs24sNMGHJOhgjwbF2iYA6CFh3nk+hdJyaTIItDI6N1VE8hf2FvpAR9tsEwD0mDAbqAg38j+Lc2Sb4SzIhfxucUGzL1sxAAyAfOQ8Xx/I3SCP5hnRkKFcLEU46bcEGB7Fc54v30t2o9MSAl3n0bP8pTbNbRMADAh1hHSk3ByjONWZySgnRfs2tmwmTxjsIVUbwJAJE1Ly7EbeGK84AeFtk/0ov3DMEQfYCNQxKgumCihB7Q9hPJ0/mV+0qfumFQPABiDPfSWoXYx1gY5iIbfly4yWAWweOugTNCAfBLpgmyCi4jhKXL6+McHpAJtJJajdC6a7J8b6XGXGyeyrxQUiVx7AJqMB7F4P8vjMbN82QX5xwgW6bsUAsMGIl7mrmpCvqsAAcBgVF5F8xV+YxD3A9QYAJXTTZbeiM6VN842Px96ezv9rvCBbifvvVgwAkA8EF6Pm7opt2jx0YEe8y7gw0i3CBwBgkWLUPKSC29iAdvnH/XQoNVLVA8AybFmaUlYjda42LORQLkCxvkfi/saKAQAOIU3x86YXb4dPt2ubhk/IcWkxl0n2axJrAMBx+MHhNNs30QzdeJuSO3M8zf7K/nFiLgHgRMTwQ3G24rjH8KdNlifYyz/+z1YMAPBQ8thMy2amTXXbNDyIuQSAVajGZjrVkeHGZmqkfvhH/RuCCfUAcGry2EwbOR+l2UXbNBzUu9yaxIEed5uYSwA4K+JwxYxGw/Qyy94lc0IBYBW0Oy84X9nwvEy8SwCoG/EurwQnbGBeJt4lANTNIL1MvEsAaIrBeZl4lwDQFIPyMvEuAaBpBuNl4l0CQNMMwsvEuwSAtui9l4l3CQBt0WsvE+8SANqmt14m3iUAtE1vvczRJPvXcOJ4lwDQHoe9zI7rT1R5b3iXANAihZfp3rHPx21TNxkl86+EE826r+4AMDhGqfOLK4oGqT1lxd1DBVJO9E09WXGJL1sxAEBriEieCxoU1jLX5bxtU7eIiT29bcoCRQDQKUJWdndvnLj3VItEQLuZrFxO7nl/gmn2UysCAGgd0aHL3nELgnnLiruDxjyN07k/we1p9gUrBgBone3UfcIE04cY6e+2qRvISe34ExQ3uPcplgCg94xTd8NEU61bYyriXdpKbtkzVgQAsDZEi3InTvs0O+PIldca35pkn7JiAIC18djuwUdUk0Y2Wt6ZuPBR6v7Wn1iSvUnsJQB0BY3DDM6cU4du34rXh8VePggnlSVWDACwdnSmj2qTOHVx5s8jtmk9yAl8zsRy/ScDAFBCHTrtv8w1at0JOUYT90N/Mol7xYoAADqD6NNeLphJdmtt3YYaUb89jcp9/U+sGACgM5QGpcPgj/xum9plNHnx03YiHxB7CQBdZSEmc8eK22WUZn9tJ9C9qUcAAIZolDXLNU/mmjIYyQm8oSehwmlFAACdI46We73yQez7H7ZN7RCDQv0JSNPcigEAOkcRxO7e18/WJ9iMJ7PPe8FMsvcIVgeAriN6te81ywtny+FFcsB/9AdOsn+xIgCAzqIiGQVTrN1ZP3JwHzk/Tmf/04oAADqLNsO9k5dmvlmuzXTb1Cw6o8dUWgVzPTFNAACnQAd6vGYlmWVib2mBtNGl2Z/bge/TfwkAfSEm45BPdfj2rLhZxom7rgfdTt33rQgAoPOIboUcmelcRbP5+HGfnchc2nHqvmjFAACdpzRN8r5+aveibWqG0gGbPxgAQI0sZi9qPKmwuLGXglhmb1kRAEBviP2YwdwVK24GUeRX/IGm2T9YEQBAb1CvMgqmiOdtK24GOUhIkTSZfd6KAAB6QxEW6fxKEY3FY5bnj29Nrn/UigEAeoV6loWWNTSvfCtxYz3ASLxMKwIA6B2j1D0bBVOsmfyY43Q+DYLpbloRAEDvKOaV62qSDQ38yI59wLq4s9+0IgCA3iEads68SxXMG1ZcL6PEhXb/JPtTKwIA6B35wI9Nwqk9oXA+cV2MgHUA6DN+xqJqmSUUHifzj9umeiiG4lWNSbgBAP1GtOwgaproW72Zix67dPCHfsdpdseKAAB6i+jZ5SCWXjTrHSnXRMG6c2nzv2xFAAC9RYTygtc0P1Jec6o3aeM/bTt/2ooAAHpLMVI+177MZ624HtSz1J1vT7NLVgQA0Fu2U/eJIJi+WV5vbsztNLvjd3zp4A+tCACgt5SmeltoUY2D2XH4nZAiABgKXtPytcpryo/x2T33m7rDoMI1B3gCAKwJneUTta22BR3HyQu/rTscpdkDKwIA6D2jJLsaBbO2WMytyewzJpjEYALAYBBd2wti6e2cFa/GaDL7ku20+VXWAABaosha5K2e4PWtxH3FdnjdigAAeo+KpGmbtqAvWvFqyI7+PuzUfc+KAAB6jzbDo2CK1TPbR3a0b4L5DSsCAOg9OtATBVMHgKx4NcaJ+7Ht8MtWBADQezSUKAjmXPXtKSteDWmSvx4Ec/bnVgQA0Hs0D2b0MDUm04pXQ5Q3ZFpPZk9YEQBA7ymvhFubYMrO3gw7nP2BFQEA9J5GBFM8zHu6Qw1gtyIAgN5TFkzRuXrizEV5HwTBfPE/WREAQO+pepjZB1a8GggmAAyRuBgaggkAcAKaEEyfYBPBBICh0YRg4mECwCCpXzCTkMIdwQSAoVG/YOJhAsBAQTABAE5IA4KZvas7e+xS9rtWBAAwCKJYjhJ3z4pWQzxMZvoAwCCJgik6V9fUSOfXJB9PZp+3IgCA3lNeEbdGwSRbEQAMj2aSb8R8mJPZl6wIAKD3VJJvpO5ZK14NEUy/2LkuhmZFAAC9ZyFbUU1LVLCmDwAMkGrG9doWQXPfsB0+b0UAAL1nYU2fC1a8GtvT7JLuVHY4tyIAgN5TXjVSHMPzVrwaW5fcF22n9WQkBgDoABr5EwVTxdOKV0MD1sMOs7esCACg94iu7UTB3E7dJ6x4NbZ3Zx/zgpm6960IAKD3iK7tRcEUD/MRK16NcjS8/mzFAAC9Zpy6K4W27X/YildHvUuvwtMf/o4VAQD0mnHiXvC6NnF3ragexkn2S93xVuL+ixUBAPQacQTfMQ9z34rqQXZ44HecZF+1IgCA3rKQeOOKFdeDuK5/Z4L5f60IAKC3lGf51Ba0HhHX9aLfcZq9akUAAL0lhkuaYJ6z4noYJQcxIr6erMQAAGtEtKz+GMzI1uT6R+POax1+BwBYA6JlFoPp6g+X/Ozejd+Iglm7GgMAtMwocc+rnklz/E0rqpfxdO5Di8bJ7L9ZEQBALxkn2X0vmGl2zYrqZZzOvxcO4L5jRQAAvaPcxSiCedGK62WcuL8IHmb2b1YEANA7tibZp1TLtqfaJK8pS9Eio8mLn/YHSbP3tE/TigEAeoXGXeYeZl1JNxYpR8Y3dhAAgIYZT903Vce2Evduo85f7CgV27EiAIBesZVkvwo65pwVNYO4srPgYWYzKwIA6A3VOeQNO37jdPYlO9AD+jEBoG/oII9qmA746CJoVtwMxSprLRwMAKBmxtPsr1S/RDibd/psxs8DL5hT95dWDADQC8ap+3kQzJaWDZeD7fsDkrkIAHpEjL/0lsyesOJmkbb/F+JBScQBAH1Ac2BIM/xe1K7WQiP1QKWDNhMlDwBQEyqWolcxJFKb4w9sUztEpZZm+V9bEQBA51CnLgplLpjpvN3uRDnot8PB3c+tCACgU2g/ZVkoc5u4P7OvtEM8EY1lemz34CNWDADQCUSfdjQ5cEUozVrXLD1gfgJtjTYBAJwAEcrdskCq5d2ISfa6fa1dYjyT2LetCABgbVicuC09URHL58XWGz+uAz7+BBL3thUBAKwFFUvNnl4WSjXxKK+Np7Pfi79rLKb9SbtURp+S+cetGACgVTQefJxkz+V6VNheENKwTLjYg7XFjlf6MVO3a8UAAK3hxTJ11wstym3PvqIDQD/RMnHyvmdF60Fc4MxO7n7jE9kBAEoEp232qmlQ2fK0bZXE55MXP23F66GIc5qrejPrBwBaQfTmEXHYbkYxzG0haidfiyzN3l67U6fqPUrdu3ZCz1gxAEBjeLFM3F3TndyWOW1xefDOzEqM62OoEcQOAE1iSTSqYplk95eNfo+m2e/E7+jSula8Xiopk1jrBwAawrQmT6KhNkqyuyqi9pUKsv0f/Xek6W5F68cP2yfuF/4fSNxrVgwAUBva3BZxzIXSC6F4mmJL07SpLonn+Z5+T4T2T624G4iCW5zT/IOj1B4A4CyMU3e+LJRqo9TdPK6ZPZ7M/ih8L3u/c3l7VeXzf2Y6f9KKAQBWQjRlJ9eWwl592HiJeJcv63dFML9rRd1C3gL/pCcYFkcnEzsArIboyaF54Rqk/jB9qUyqmc5+z4q7xSjJzukJaso3/dmKAQBOhe9/TLPLuehFS+ZPn8QZE1Gdhu+7u1bUPfQfyWMyp+6frBgA4MT4QWSfRGNeEUtNonHSwHMRTAs7mk+tqJuMp9mT4USdjmC1s8gQAAwCdbqOS6JhXzuWcmaizseF22JD9k+6K1YMAHAsYc73siQap0vsI06bF9xROsusqNuI6/x6/GfxMgHgYYRBGvfjQiRzO9VEmN//X9l/GCfu3/3fTrPfteJuI4J5QU9YB3/wMgHgONSpGk2yn5VE0ttZBo7l776jf7s9dT+1ou7jE3Ik7p3iH8fLBIDDeLE8YRKNh1H2LqU5/pgV94M48wcvEwCWEZJozCrzwjWJxllnCsrf98+7jOBlAsBRbE1mnxFdOJREY5zOHrWvnIpee5cRvEwAWESb26IHuVAGsTw6icZJkH3017uM4GUCQBkRylMn0XgYg/AuI3iZAKDE6JmquZdWDS6X/fTfu4zgZQKAPPtnSqLxMAblXUbwMgE2k5BEw12pCqU6TjovfPWMZrKv4XiXEbxMgM0jJtEIjlJFLK+edF74cQzSu4zgZQJsDpZE44WyUJrt2VdWRvY1PO8ysuhljpP5x20TAAwImxd+KImGOk32lZX5z1+7/h/lGMP0LiNVLzPbr8MtB4DuoGIpz/nNKJIlq3U1WTnGi7pf0ZLurAZZN+Zl3tN/dORXf3PnbRMA9Bwdm6gricZxyHE+l++/LxmJzso4mT1RupD3OrO4OgCcGe1iEyGrJtFIsvtSduokGsfhR91lv+EY7mkrHjbyz+6Hf3iuovmUFQNAD/FJw3MRi2I5O3MSjeMQvbim+5fPzVloUV338sWt+y0EAO2gz648w4eTaDQwqDuezj8Zj7GVuD+24s0gDgDZBb6t/Zu2CQB6gIllLpT2LN9Rh8i+UhvWFP+lP06SvWzFm4MPak2yW+FC+8wll20TAHQceV53wrNbEsvU3Wxq0bFxOkv8MTRQ/S8PfsuKN4utSfapcLFDqqcm+jwAoF7KrcPC3PWmxHJ7d/Yx2b+PuVThtOLNRC6En2eqsZnqcRKbCdBd5FndW1wvXMWyyQEYOcYNfxxpkm+8PizGZurbyzYBQEfwfYgNJtE4itHk+p/kx5vOP2nFm005NtMb0yYBOoMKojgyh5JoqIA26fEFZyp7YMf7thWDIhfEYjO9HdA0B1g/PonGknnhYrUl0TgKaXn+QI8lonl/Y2IuT4qGIrR9QwDgaCyJxksLz6UK2AX7SmOMv+K+mB9vkn3BiqFMMfpmI2LSVLdNANAibSXRWIauHBmb/yLOMyuGRULHcnagFyqMmrt79GcCtIu29raS7I4JZG5S3viMPBsE9nPSRSzfaSpUaTBoMg4vlP4maXymu0H/BUA7qHcXBSu3JLuv64jbVxrDHKZ8LEPjtG0THEcMaB+l7n3/SYIOgMYJSTRmrSTRWMYomX+lOG72P6wYTkLsz5S3nRdNscb7TgA2FW1uyzPWShKNZYwmL346P26afd+K4aSoe66eZfkG4qID1I88Z+fKz5malP1MRLSVxQp9N1yaheVrpjqbh0Q8Z8ICVy1Bh7+Jt+kEBqgPea4OJdEQ+3Fbz1lwjNxr/rhJ9h6DvCuindDxRopgar/mswS1A6zOOHW78dkqTOeFt+fhjRP3f+Kxt6fEW9ZCnDopbnvszySoHWAF9BmyZ6mwxL3QZkSKCmQ8tjhCf2vFUAfy5rOJ/7a0Zs0LKwFsAjY2cDUKVTQpu9Zmy02b3tupNMH12Gn2E1qNNRPmtIag9mhtxIYBDAX/DCXzp8vPkNnlNgVLB5PEm31bjy1C/Q4LITZENahdL7a7R9JhgIcTHI71JNEoE6Zcup/G42s4kW2CJhCRzNcR8YNAiCbAsahIiVgeSqIh1mpssz+POCIuJs/vl20TNIneaH/RExf6QEQ0xVqJGQPoExbjuCSJhjtvX2kF9XDlPH6UH3+aPWmboA3k7XTBX/hcNLPbiCZAgT4Po8nCvHD/rLS7rLUXyyTLSsf/FoM8a0Auvg+NGKXzd8ONILAdQNFuKhGmJUk02p0tp8JY7jsVL/O7iOUakZtwOdyIIJpyc24gmrDJ+CQaC/PC20yiEVFhHCWzb8VzELHM1Nu0zbAOwk3J48qskiCasJloczsKVDR5Pu5q89y+0gr+uUyza6Xz+BFi2RFMNGOijvhm3ecGwSYRZ8SVbZS6m22LpTJO518vzsO9hgPTMVQc5ebE5KOIJmwUUtd3RJhMoHJ7dR1CJcfdK5aYcL9ALDuKiaafDSQeZwxwRzRh0IhQHpFEo/16L8fO56jLM/jWOrxbOAX6NtM+TH/TksxPvxI74C0HQ0O7oqRuL0mikT3XtliGc4n5Hvw53Ecse4KKo7zdfB7NUZr92n8m2W1y7cFQWDKo4k3qeatJNBRNByfHztfiUbFk9l3P0LebF8lwE9/UTym7R9Z26Du+60m8yFygCttrWyx1JpF4lq/k57CG8CWoiXLzXMQzNs/1prLeOfSS0E+//iQaiq0wmS/HG36ePWqboY9oBdMs7eGG5gNBYm7XvgLQC4IDMHu1qMO5tb5AoIjj42JhHR5v7hX5nT7LIbDYIT1Kszgr6ErbTRiAs6BiJPX2cBKNNbSW5Lk5v3Ae+yxcNkCkwvmle9VK3iZhR9BpvFguzgv3dbjdJBqKHHdPBLN0DtlVnI4BIze4vKToW+HT3SDrM3SRo5JotD8v3GccWljagm6tjUBHyqUSeg9TvE4vmlIZbtNhDV1C66nUzUoSDamnd9sWy9B3WgobUmPgdLMIzZw87Mi/wVVE1QO1rwCsDW1uS10sBCrUz9aTaAQPN3sjP4fUvcNaWhuKvTnjVMryiN8V+jVhXSwZVPFJNNrsNtJ+yXKffzgHEU4mf2w21jcTMh356Vz5zKBbNNGhbaTuheVXqtZqEo0QjB4dibCsNf38kBPCjkpJA9KsWNUuyS7Y1wAapVwHC2s3iYbU93PaNVU+B3UoaHHBIbRvRipH7Nf8lXqcvsKk7tk23/CwWdgL268cULFk/nRbQmUtrYVRcLV2F0uDnqHCGGcGeUvcz/RThZTObqgb6yu8Nk7nFaFS8WorvjFMccxuielx8yY4/ZVwYqTihFUpQ+X1mY/MWk9wAMNEvTppxbxQqlt5HbOvNIoX61I9L9llmuBwauKbVyuReAG/lp8t0D074O0LqxBSoi1LotFOMLgO4FRaUmLadynW+uwhGBCLfTtxQCh0jNO/A6cnhLO5H8c6VbJWkmioKEqdvi3noF1O1gTP9hkFh9rQmQ356GGS/ZtVMl/RCD+CkyJ16JHRJPP94mUTAWt8woQ/drFYYHHsNLtINxPUjlY4qWA+Pi2MoM9LfZvuCiPpcBxBsNpPomHNf7/ujwimHu99+/kWyX6hUfRNLJWtHC/3E6l4eUZ3+dzhbQ2LhCmGs8q8cH3pNi1YoWWUh8rlJmVXSckGrWFzbHMPc5S6F0uV8RYhSBDRuiD14lASjSa7crR+ynFCa6h63Nti5EuA9jFvc8c8S3sIsjwjto5CyjayUG8w2tz2gytWJ3y9SLI7TdULP/pdHqRMsgf5z76vknAhWDM+2L08SyJxr0lz61f576nbpfmzeci9PzQvXF6iN5vo67Zojgvx5S1WEkpe3NBBljSDDqSi+ixIUpk1jOM8/ZubgYpXqR6YuZeaEEs51jmx8uQKb1pG1xB0mtBMd+fjm17e7iqYuYj6ip3MnkA4h4vc51aSaEgdk+Z+kdhXmtzeq9S6p4JN8xt6QwjlqCRU0Lm6P4m/y886crlDU3042MsyX2yvdK+v1SVeegzZ3zk5jl8+2qxofifZVQLQobfoSKhU5LKHORtN3A+L39UTdbvEcPYbL2Rpdm17motYLmB1tCZUcGV/O7K/IjKjumz0jaZDlABaY0k83KvSXP9+6Xe1PRFQOud7hhezhpJoaAtER7eLuuNH3N+Oxwjl9I3DAAkPlhfOkpfgfi4P23Pxd3sIrjLdsh9oy0AE61ASDRU5+8qZCPv1L9CyF1kWSq1DO/RTwkYgD4J22Jea6u6OPGT/Tz/zstQ9qysH2p9Ax1BRk3t2M96vkp05iYbc/0dEGEv9oE7rRqXpLWJ5Do8SNhKbMZQnRBglMx1V368maNBkrrMn6OfsDipsW0mWv9yiSfmp54Wrl6h/V6kHafZArLQwn2YTIkQIwBM8i8VlCtwPxMvM1xdSC0HI6mEwur4uNBeq3K9qEg2/gN7JxVI9RJsyubg0hYpkedT7KQZzAI7A+sR25eErN8NekgfyefksexxafkUfUppn7eEnJ9haT7klsxMn0dAuFvmbPRHC0gCgNLvT7PXid1+m95YBQICTYHGclTASNXkwvz9OqoMMJq6X6e9sFn05yXU+nETjIdn3dbsIoLwEq/dS7A0R39JAjr+Pe3S9AJwR9R71QZWHrbKin5Spt/n8aJL9a7Xch5nsMspeLyaW+XW2a31kEg1LgnFB7kU5wFzzDNyV8rjUSbT9MPuLbhaA2vAxeX6WRzEdTk0fXPmUJnuRKSmYuyFNvYvaXKTZfnbkWp4oiUbwJP13K2nVgkAuJg72QrrDrByAFgh9nYcfTnkQXxsl838Wz+fn1XL/kOuA0QUE9OToC2fxOso1vh6uv5/Fpd0mT8n1LvU5iyU+ZvKNcpl8T5rkvn+avkmAdaEPYHgQF/rIEvdyeJizWaXczAuoCIL2fRIAfZhwXYsRa29hPadnKmVm8v3X5VpXFjczId2jfxmgg/hR3EOjsOHBlbLnvYCm2eKUzGj7CGhAPfDxdP55Ecj3llwnb/LC0WQqP5JrutgnKeauaNgQnjxAD9AHNcT5+cWvFprtuYA+J5/fOk5A9cGXzx0V4qH2t5Wb12J76nnb/6/NaP+pSTVG6ezV8dT98AiB1D5Jncr4ON46QM/RAaOTCKhs//vQ17nQJ1cyExQNuN4J+5w92nWR8B6jnKfFQYow+i6Mw32PZUtmrwSBXPadQiAJAwIYOA8XUL9Yljbhv6kiKmLzjHy+tPi9JbbvhSgMlqjHlouqt4fELJ4W9Xrjvq07wh9TzuFCOI/CWzzaZpqrVK+B9k0eyM+/rG5XQyABwHiYgEYTMbkVmvDuGyIe0pyf/W/7vRpv2DGT8/6FfGo41g/kXL8jn/o/LgaSlwyBBIATok3s4BHOnlBv0XtrCwNJi6bb5bvq0ak3+g0VJi+qyexrUqZipfZdsSMF+TQmx9LphH6/cmyNBNDjqhg+I9s0SbNuW/q3ZdP/Tf5OXhTuvP7PBJADQC3kQurFxTd9r6rgiDAe3Re4ZvNCHgRfZ0v5Jrv+D3iOALBWwmwXFdQoTGpxgCXa6uKq+6ju06/S6I+3dcl9UT1jOY8/COfSbwtdJeXr2X+T+2Uv2oGYtMLsEQhoM2XZzTzOuNHdN/mfamkeY9gmmz5LJpUB7fxe9kUMw7BNNwQT67OF0KaB2NgmDwzJQjzs8pZpH030sZofQGPclt3M44wb3X07dKMBYAU+9KH/D9X5N/LyM0vLAAAAAElFTkSuQmCC;" vertex="1" parent="1">
          <mxGeometry x="62.000000000000014" y="230" width="96.7" height="90" as="geometry" />
        </mxCell>
        <mxCell id="yX0KzCqddHvq5yeCaqTo-6" value="expertise" style="shape=image;verticalLabelPosition=bottom;labelBackgroundColor=default;verticalAlign=top;aspect=fixed;imageAspect=0;image=data:image/png,iVBORw0KGgoAAAANSUhEUgAAAUwAAAE1CAYAAACMQ9lWAAAAAXNSR0IArs4c6QAAAARnQU1BAACxjwv8YQUAAAAJcEhZcwAAFxEAABcRAcom8z8AACS+SURBVHhe7Z1PjCTHdad19FFH31Y367TiUYe1QcCAIUAXXQSqqxorwrCMgS4mFgI8hiGjYSx2BOwCA0ML91RmSS0IawxAwx6tgPV4DFkUQWgpLi23OBVZTdGih9SIGlP/hjOkOBwOae57ES/yT3V1T3dXZlZm1vcBD9UdWZ2ZnRn5yxcRL158COAsjBL3yDidPaomPz8+TrMdtVGaXRwl2VOrmuxrL99nkp2Lxxon84/bKQAAdAMVpiBS7ryJVhSyD46z7eny8iZslLpn7bwuyO8726n7hJ7zZ/du/Ib9GwAA9aHCuDWZfUYFJwiiu1GIkqsIVDdtvqRMxDTJbkUxFfMeKkIKACdma3L9o0E8sstiB2WBOaXtmxipwF6R333TWW1rkn0qbz6f0YKnWOxT7HI8nnqV8vuyc1pih8VU9qFCetV7zjTvASDi+xmT2RMqaiISbyyKx9Hmbqg4yeeu/C4iqB6oemj7H7Zdrx31FvWcgkAXfafy8wleBHMVzvx3+zsR5tmjtnsAGDqh31H7HE8mkPKdQ81W21XvWehqUI+y1NWwaMsFVD1dmvEAAyEKpAqC2L1CAJabDZJc2GQh0JeCXAvrr11+nQ4JKNcNoJ+EB97tygP8cA+SB/2hnEVAxS6r98o1BeggfrAmzS6GZqWOXB8xMoxArszJBDSYfOe2fO7p9bY/B4B18NjuwUe0uS0P5JGDGAhk8xwloKPE/Xt4cYXQK9l+K3j+7hH7UwBoks/uud+UB++cCmF4MJd6kiqgOyqo9mfQEofvTzDx/t8v/x5aAhpdcP2j9qcAUAfqGYaphT6esfTQFabeSwibwXvpCke1AOQeiXhWXnT7GtqlYmt/CgCnRR84L4Lp7J3Sw5WbbNNBnT1tEtqfQEep9jGX76M22yu/XyFYHuAU6MMlD48mlig9SMHEO1Hx9COw9nXoGaUoBh0QWri/+edTDBQBHIM9SEub3fIAXdVmeZdm0sDq2Cyky3JvixjZJHsv/9lPMXWP29cBQB8aG83OBVJNfr+jzTj6toaP9lPbFNVyYhMRzpjcRMp9PyeRDrCBlAZyXikekGBS/rp87uBNbiahXpQGikoep7xEtRkvdYOXKGwAKoLqKZgoVoRSxVMeiHN4EaDElkesH/JzProu9eeetj4IHYNB4oXSBze7O0tiJ/cZxIGjOK5v22wPjxMGg4qheAOHPErxJhkJhRMjL9tHVBzLdShmr1ePUz6lqU7rBHqKzxSUZM+VK3gwTa1GgDmcDQuI1ymWpexTsame3dKmvH0VoPto80grdFGZg0llvkqfE9SF1rMQDG91rDo49BQvZeg0PjQkdee3kuxOeaEvqdQv0vSGplBhVIGM9a0inD4sjWgL6BgqiNsijHml1crqB3jcefqVoA18X7nPiFTUwVAPs9ti5+xrAOvDFg3TbOaVSip2mZFLaJsQ36vLiYT+Tfn5QalO7pN3ANaCNnOsYi4mxtgneQKsG5+4xa9TlNfLd0s/8zKH9lBBFKGshAmNNHNQMnvCvgLQCbSrSOpnPmtoOw39myKm0kxnjjo0jHqVsfIV5nbpWIcuo33pKpK+viblOeoa9E7dhZoJuSkXs2hrwgxCN6AfhHC3IvBdWkXWTNfEHnQjQU3o6KOGCsWKZpXsvG0G6BXaTI/epnyW+jap07ACNv97MZHvq7yNoe/4oPeFRdvUtIwBITg1flpj6l5aqFD098CgUK8yD0FKnfc21ftkeiWcGK1E4yS7H4VSKtRdRhRhqATnwEbSk7nU+zxp8S6TLuBIrJlSjl3TaWbPsRQqDJ1D3U/F9MoDBjbhEKEjXKcyWoURE/G8wBsWNgltSWmT3J6Bt8NzIE12YowhIhXkXBTJUEGy10mWAZtKWBI4D6F7UG6i21dgU6mkxwpieZVRQth04pz0/NmwJnp4Pmh1bRx606UCXM4rRLAd2wwAgibrEJEMMZvFfPR9nIoNwndwlzOhJ9l9RsEBlqNNdGmOx+V/LXrE3WAwaAOw9P55fKW8Pe/SXwlwPOpRyvOyb2LpM3QFz5N0cYNF34ijibubi2XqbvKWBDgZ2jLTPszw7ITmuY6g0zobID7NVSkYXd6S11lfB+D0yPMT4jV91qP8eWIe+lCQt+I5uaF2Y31T4hpTHAHOjjxHO4VY5rbHCHrPEXG8UBZLbipAPWhTPH+uKmFHOCO9RMUxv6HBCBsCqJFKqrhK2BGi2SvG6fzrcalbzcJCxzRAM+jAqYhmXK0yjhMgmn1BblaRVZqwIYDGCeF6+dpBfg66mIgm3V+dRm5S3hktYvmmvv1sEwA0iHqUKpL2/HlPM/RpIpqdRG5QWSzfQiwB2iUEuNusoCRmO8qu2mboCnJT8oxDIXM0MxAA1oHNpvOiWRoI2rPNsG7K4Q16g+izBFgvPkVckVczDgQhmutGV3S0m+FNf7dNALBGbPQ8iGaRwZ3QvnXhY8Bs4SY19TRtEwB0AF0vSJ5LW2RNkxEjmmvBzw0vXH15g5FCH6CLhOD2IJrRdMzBNkPTmKv/VukG8MYC6DC6bG/peTXRpEXYODoCJxe6lKItu2ibAKDDqECWBVONAdoG8ctKJNnLpQvOqBtAj6iE/yXebpNmsSF0fngultPsSSsGgB4hz6+fYBJjNHWFSmYD1YwO6sRkGmIvc4EB+ss4dVfsWSZGs24sNMGHJOhgjwbF2iYA6CFh3nk+hdJyaTIItDI6N1VE8hf2FvpAR9tsEwD0mDAbqAg38j+Lc2Sb4SzIhfxucUGzL1sxAAyAfOQ8Xx/I3SCP5hnRkKFcLEU46bcEGB7Fc54v30t2o9MSAl3n0bP8pTbNbRMADAh1hHSk3ByjONWZySgnRfs2tmwmTxjsIVUbwJAJE1Ly7EbeGK84AeFtk/0ov3DMEQfYCNQxKgumCihB7Q9hPJ0/mV+0qfumFQPABiDPfSWoXYx1gY5iIbfly4yWAWweOugTNCAfBLpgmyCi4jhKXL6+McHpAJtJJajdC6a7J8b6XGXGyeyrxQUiVx7AJqMB7F4P8vjMbN82QX5xwgW6bsUAsMGIl7mrmpCvqsAAcBgVF5F8xV+YxD3A9QYAJXTTZbeiM6VN842Px96ezv9rvCBbifvvVgwAkA8EF6Pm7opt2jx0YEe8y7gw0i3CBwBgkWLUPKSC29iAdvnH/XQoNVLVA8AybFmaUlYjda42LORQLkCxvkfi/saKAQAOIU3x86YXb4dPt2ubhk/IcWkxl0n2axJrAMBx+MHhNNs30QzdeJuSO3M8zf7K/nFiLgHgRMTwQ3G24rjH8KdNlifYyz/+z1YMAPBQ8thMy2amTXXbNDyIuQSAVajGZjrVkeHGZmqkfvhH/RuCCfUAcGry2EwbOR+l2UXbNBzUu9yaxIEed5uYSwA4K+JwxYxGw/Qyy94lc0IBYBW0Oy84X9nwvEy8SwCoG/EurwQnbGBeJt4lANTNIL1MvEsAaIrBeZl4lwDQFIPyMvEuAaBpBuNl4l0CQNMMwsvEuwSAtui9l4l3CQBt0WsvE+8SANqmt14m3iUAtE1vvczRJPvXcOJ4lwDQHoe9zI7rT1R5b3iXANAihZfp3rHPx21TNxkl86+EE826r+4AMDhGqfOLK4oGqT1lxd1DBVJO9E09WXGJL1sxAEBriEieCxoU1jLX5bxtU7eIiT29bcoCRQDQKUJWdndvnLj3VItEQLuZrFxO7nl/gmn2UysCAGgd0aHL3nELgnnLiruDxjyN07k/we1p9gUrBgBone3UfcIE04cY6e+2qRvISe34ExQ3uPcplgCg94xTd8NEU61bYyriXdpKbtkzVgQAsDZEi3InTvs0O+PIldca35pkn7JiAIC18djuwUdUk0Y2Wt6ZuPBR6v7Wn1iSvUnsJQB0BY3DDM6cU4du34rXh8VePggnlSVWDACwdnSmj2qTOHVx5s8jtmk9yAl8zsRy/ScDAFBCHTrtv8w1at0JOUYT90N/Mol7xYoAADqD6NNeLphJdmtt3YYaUb89jcp9/U+sGACgM5QGpcPgj/xum9plNHnx03YiHxB7CQBdZSEmc8eK22WUZn9tJ9C9qUcAAIZolDXLNU/mmjIYyQm8oSehwmlFAACdI46We73yQez7H7ZN7RCDQv0JSNPcigEAOkcRxO7e18/WJ9iMJ7PPe8FMsvcIVgeAriN6te81ywtny+FFcsB/9AdOsn+xIgCAzqIiGQVTrN1ZP3JwHzk/Tmf/04oAADqLNsO9k5dmvlmuzXTb1Cw6o8dUWgVzPTFNAACnQAd6vGYlmWVib2mBtNGl2Z/bge/TfwkAfSEm45BPdfj2rLhZxom7rgfdTt33rQgAoPOIboUcmelcRbP5+HGfnchc2nHqvmjFAACdpzRN8r5+aveibWqG0gGbPxgAQI0sZi9qPKmwuLGXglhmb1kRAEBviP2YwdwVK24GUeRX/IGm2T9YEQBAb1CvMgqmiOdtK24GOUhIkTSZfd6KAAB6QxEW6fxKEY3FY5bnj29Nrn/UigEAeoV6loWWNTSvfCtxYz3ASLxMKwIA6B2j1D0bBVOsmfyY43Q+DYLpbloRAEDvKOaV62qSDQ38yI59wLq4s9+0IgCA3iEads68SxXMG1ZcL6PEhXb/JPtTKwIA6B35wI9Nwqk9oXA+cV2MgHUA6DN+xqJqmSUUHifzj9umeiiG4lWNSbgBAP1GtOwgaproW72Zix67dPCHfsdpdseKAAB6i+jZ5SCWXjTrHSnXRMG6c2nzv2xFAAC9RYTygtc0P1Jec6o3aeM/bTt/2ooAAHpLMVI+177MZ624HtSz1J1vT7NLVgQA0Fu2U/eJIJi+WV5vbsztNLvjd3zp4A+tCACgt5SmeltoUY2D2XH4nZAiABgKXtPytcpryo/x2T33m7rDoMI1B3gCAKwJneUTta22BR3HyQu/rTscpdkDKwIA6D2jJLsaBbO2WMytyewzJpjEYALAYBBd2wti6e2cFa/GaDL7ku20+VXWAABaosha5K2e4PWtxH3FdnjdigAAeo+KpGmbtqAvWvFqyI7+PuzUfc+KAAB6jzbDo2CK1TPbR3a0b4L5DSsCAOg9OtATBVMHgKx4NcaJ+7Ht8MtWBADQezSUKAjmXPXtKSteDWmSvx4Ec/bnVgQA0Hs0D2b0MDUm04pXQ5Q3ZFpPZk9YEQBA7ymvhFubYMrO3gw7nP2BFQEA9J5GBFM8zHu6Qw1gtyIAgN5TFkzRuXrizEV5HwTBfPE/WREAQO+pepjZB1a8GggmAAyRuBgaggkAcAKaEEyfYBPBBICh0YRg4mECwCCpXzCTkMIdwQSAoVG/YOJhAsBAQTABAE5IA4KZvas7e+xS9rtWBAAwCKJYjhJ3z4pWQzxMZvoAwCCJgik6V9fUSOfXJB9PZp+3IgCA3lNeEbdGwSRbEQAMj2aSb8R8mJPZl6wIAKD3VJJvpO5ZK14NEUy/2LkuhmZFAAC9ZyFbUU1LVLCmDwAMkGrG9doWQXPfsB0+b0UAAL1nYU2fC1a8GtvT7JLuVHY4tyIAgN5TXjVSHMPzVrwaW5fcF22n9WQkBgDoABr5EwVTxdOKV0MD1sMOs7esCACg94iu7UTB3E7dJ6x4NbZ3Zx/zgpm6960IAKD3iK7tRcEUD/MRK16NcjS8/mzFAAC9Zpy6K4W27X/YildHvUuvwtMf/o4VAQD0mnHiXvC6NnF3ragexkn2S93xVuL+ixUBAPQacQTfMQ9z34rqQXZ44HecZF+1IgCA3rKQeOOKFdeDuK5/Z4L5f60IAKC3lGf51Ba0HhHX9aLfcZq9akUAAL0lhkuaYJ6z4noYJQcxIr6erMQAAGtEtKz+GMzI1uT6R+POax1+BwBYA6JlFoPp6g+X/Ozejd+Iglm7GgMAtMwocc+rnklz/E0rqpfxdO5Di8bJ7L9ZEQBALxkn2X0vmGl2zYrqZZzOvxcO4L5jRQAAvaPcxSiCedGK62WcuL8IHmb2b1YEANA7tibZp1TLtqfaJK8pS9Eio8mLn/YHSbP3tE/TigEAeoXGXeYeZl1JNxYpR8Y3dhAAgIYZT903Vce2Evduo85f7CgV27EiAIBesZVkvwo65pwVNYO4srPgYWYzKwIA6A3VOeQNO37jdPYlO9AD+jEBoG/oII9qmA746CJoVtwMxSprLRwMAKBmxtPsr1S/RDibd/psxs8DL5hT95dWDADQC8ap+3kQzJaWDZeD7fsDkrkIAHpEjL/0lsyesOJmkbb/F+JBScQBAH1Ac2BIM/xe1K7WQiP1QKWDNhMlDwBQEyqWolcxJFKb4w9sUztEpZZm+V9bEQBA51CnLgplLpjpvN3uRDnot8PB3c+tCACgU2g/ZVkoc5u4P7OvtEM8EY1lemz34CNWDADQCUSfdjQ5cEUozVrXLD1gfgJtjTYBAJwAEcrdskCq5d2ISfa6fa1dYjyT2LetCABgbVicuC09URHL58XWGz+uAz7+BBL3thUBAKwFFUvNnl4WSjXxKK+Np7Pfi79rLKb9SbtURp+S+cetGACgVTQefJxkz+V6VNheENKwTLjYg7XFjlf6MVO3a8UAAK3hxTJ11wstym3PvqIDQD/RMnHyvmdF60Fc4MxO7n7jE9kBAEoEp232qmlQ2fK0bZXE55MXP23F66GIc5qrejPrBwBaQfTmEXHYbkYxzG0haidfiyzN3l67U6fqPUrdu3ZCz1gxAEBjeLFM3F3TndyWOW1xefDOzEqM62OoEcQOAE1iSTSqYplk95eNfo+m2e/E7+jSula8Xiopk1jrBwAawrQmT6KhNkqyuyqi9pUKsv0f/Xek6W5F68cP2yfuF/4fSNxrVgwAUBva3BZxzIXSC6F4mmJL07SpLonn+Z5+T4T2T624G4iCW5zT/IOj1B4A4CyMU3e+LJRqo9TdPK6ZPZ7M/ih8L3u/c3l7VeXzf2Y6f9KKAQBWQjRlJ9eWwl592HiJeJcv63dFML9rRd1C3gL/pCcYFkcnEzsArIboyaF54Rqk/jB9qUyqmc5+z4q7xSjJzukJaso3/dmKAQBOhe9/TLPLuehFS+ZPn8QZE1Gdhu+7u1bUPfQfyWMyp+6frBgA4MT4QWSfRGNeEUtNonHSwHMRTAs7mk+tqJuMp9mT4USdjmC1s8gQAAwCdbqOS6JhXzuWcmaizseF22JD9k+6K1YMAHAsYc73siQap0vsI06bF9xROsusqNuI6/x6/GfxMgHgYYRBGvfjQiRzO9VEmN//X9l/GCfu3/3fTrPfteJuI4J5QU9YB3/wMgHgONSpGk2yn5VE0ttZBo7l776jf7s9dT+1ou7jE3Ik7p3iH8fLBIDDeLE8YRKNh1H2LqU5/pgV94M48wcvEwCWEZJozCrzwjWJxllnCsrf98+7jOBlAsBRbE1mnxFdOJREY5zOHrWvnIpee5cRvEwAWESb26IHuVAGsTw6icZJkH3017uM4GUCQBkRylMn0XgYg/AuI3iZAKDE6JmquZdWDS6X/fTfu4zgZQKAPPtnSqLxMAblXUbwMgE2k5BEw12pCqU6TjovfPWMZrKv4XiXEbxMgM0jJtEIjlJFLK+edF74cQzSu4zgZQJsDpZE44WyUJrt2VdWRvY1PO8ysuhljpP5x20TAAwImxd+KImGOk32lZX5z1+7/h/lGMP0LiNVLzPbr8MtB4DuoGIpz/nNKJIlq3U1WTnGi7pf0ZLurAZZN+Zl3tN/dORXf3PnbRMA9Bwdm6gricZxyHE+l++/LxmJzso4mT1RupD3OrO4OgCcGe1iEyGrJtFIsvtSduokGsfhR91lv+EY7mkrHjbyz+6Hf3iuovmUFQNAD/FJw3MRi2I5O3MSjeMQvbim+5fPzVloUV338sWt+y0EAO2gz648w4eTaDQwqDuezj8Zj7GVuD+24s0gDgDZBb6t/Zu2CQB6gIllLpT2LN9Rh8i+UhvWFP+lP06SvWzFm4MPak2yW+FC+8wll20TAHQceV53wrNbEsvU3Wxq0bFxOkv8MTRQ/S8PfsuKN4utSfapcLFDqqcm+jwAoF7KrcPC3PWmxHJ7d/Yx2b+PuVThtOLNRC6En2eqsZnqcRKbCdBd5FndW1wvXMWyyQEYOcYNfxxpkm+8PizGZurbyzYBQEfwfYgNJtE4itHk+p/kx5vOP2nFm005NtMb0yYBOoMKojgyh5JoqIA26fEFZyp7YMf7thWDIhfEYjO9HdA0B1g/PonGknnhYrUl0TgKaXn+QI8lonl/Y2IuT4qGIrR9QwDgaCyJxksLz6UK2AX7SmOMv+K+mB9vkn3BiqFMMfpmI2LSVLdNANAibSXRWIauHBmb/yLOMyuGRULHcnagFyqMmrt79GcCtIu29raS7I4JZG5S3viMPBsE9nPSRSzfaSpUaTBoMg4vlP4maXymu0H/BUA7qHcXBSu3JLuv64jbVxrDHKZ8LEPjtG0THEcMaB+l7n3/SYIOgMYJSTRmrSTRWMYomX+lOG72P6wYTkLsz5S3nRdNscb7TgA2FW1uyzPWShKNZYwmL346P26afd+K4aSoe66eZfkG4qID1I88Z+fKz5malP1MRLSVxQp9N1yaheVrpjqbh0Q8Z8ICVy1Bh7+Jt+kEBqgPea4OJdEQ+3Fbz1lwjNxr/rhJ9h6DvCuindDxRopgar/mswS1A6zOOHW78dkqTOeFt+fhjRP3f+Kxt6fEW9ZCnDopbnvszySoHWAF9BmyZ6mwxL3QZkSKCmQ8tjhCf2vFUAfy5rOJ/7a0Zs0LKwFsAjY2cDUKVTQpu9Zmy02b3tupNMH12Gn2E1qNNRPmtIag9mhtxIYBDAX/DCXzp8vPkNnlNgVLB5PEm31bjy1C/Q4LITZENahdL7a7R9JhgIcTHI71JNEoE6Zcup/G42s4kW2CJhCRzNcR8YNAiCbAsahIiVgeSqIh1mpssz+POCIuJs/vl20TNIneaH/RExf6QEQ0xVqJGQPoExbjuCSJhjtvX2kF9XDlPH6UH3+aPWmboA3k7XTBX/hcNLPbiCZAgT4Po8nCvHD/rLS7rLUXyyTLSsf/FoM8a0Auvg+NGKXzd8ONILAdQNFuKhGmJUk02p0tp8JY7jsVL/O7iOUakZtwOdyIIJpyc24gmrDJ+CQaC/PC20yiEVFhHCWzb8VzELHM1Nu0zbAOwk3J48qskiCasJloczsKVDR5Pu5q89y+0gr+uUyza6Xz+BFi2RFMNGOijvhm3ecGwSYRZ8SVbZS6m22LpTJO518vzsO9hgPTMVQc5ebE5KOIJmwUUtd3RJhMoHJ7dR1CJcfdK5aYcL9ALDuKiaafDSQeZwxwRzRh0IhQHpFEo/16L8fO56jLM/jWOrxbOAX6NtM+TH/TksxPvxI74C0HQ0O7oqRuL0mikT3XtliGc4n5Hvw53Ecse4KKo7zdfB7NUZr92n8m2W1y7cFQWDKo4k3qeatJNBRNByfHztfiUbFk9l3P0LebF8lwE9/UTym7R9Z26Du+60m8yFygCttrWyx1JpF4lq/k57CG8CWoiXLzXMQzNs/1prLeOfSS0E+//iQaiq0wmS/HG36ePWqboY9oBdMs7eGG5gNBYm7XvgLQC4IDMHu1qMO5tb5AoIjj42JhHR5v7hX5nT7LIbDYIT1Kszgr6ErbTRiAs6BiJPX2cBKNNbSW5Lk5v3Ae+yxcNkCkwvmle9VK3iZhR9BpvFguzgv3dbjdJBqKHHdPBLN0DtlVnI4BIze4vKToW+HT3SDrM3SRo5JotD8v3GccWljagm6tjUBHyqUSeg9TvE4vmlIZbtNhDV1C66nUzUoSDamnd9sWy9B3WgobUmPgdLMIzZw87Mi/wVVE1QO1rwCsDW1uS10sBCrUz9aTaAQPN3sjP4fUvcNaWhuKvTnjVMryiN8V+jVhXSwZVPFJNNrsNtJ+yXKffzgHEU4mf2w21jcTMh356Vz5zKBbNNGhbaTuheVXqtZqEo0QjB4dibCsNf38kBPCjkpJA9KsWNUuyS7Y1wAapVwHC2s3iYbU93PaNVU+B3UoaHHBIbRvRipH7Nf8lXqcvsKk7tk23/CwWdgL268cULFk/nRbQmUtrYVRcLV2F0uDnqHCGGcGeUvcz/RThZTObqgb6yu8Nk7nFaFS8WorvjFMccxuielx8yY4/ZVwYqTihFUpQ+X1mY/MWk9wAMNEvTppxbxQqlt5HbOvNIoX61I9L9llmuBwauKbVyuReAG/lp8t0D074O0LqxBSoi1LotFOMLgO4FRaUmLadynW+uwhGBCLfTtxQCh0jNO/A6cnhLO5H8c6VbJWkmioKEqdvi3noF1O1gTP9hkFh9rQmQ356GGS/ZtVMl/RCD+CkyJ16JHRJPP94mUTAWt8woQ/drFYYHHsNLtINxPUjlY4qWA+Pi2MoM9LfZvuCiPpcBxBsNpPomHNf7/ujwimHu99+/kWyX6hUfRNLJWtHC/3E6l4eUZ3+dzhbQ2LhCmGs8q8cH3pNi1YoWWUh8rlJmVXSckGrWFzbHMPc5S6F0uV8RYhSBDRuiD14lASjSa7crR+ynFCa6h63Nti5EuA9jFvc8c8S3sIsjwjto5CyjayUG8w2tz2gytWJ3y9SLI7TdULP/pdHqRMsgf5z76vknAhWDM+2L08SyJxr0lz61f576nbpfmzeci9PzQvXF6iN5vo67Zojgvx5S1WEkpe3NBBljSDDqSi+ixIUpk1jOM8/ZubgYpXqR6YuZeaEEs51jmx8uQKb1pG1xB0mtBMd+fjm17e7iqYuYj6ip3MnkA4h4vc51aSaEgdk+Z+kdhXmtzeq9S6p4JN8xt6QwjlqCRU0Lm6P4m/y886crlDU3042MsyX2yvdK+v1SVeegzZ3zk5jl8+2qxofifZVQLQobfoSKhU5LKHORtN3A+L39UTdbvEcPYbL2Rpdm17motYLmB1tCZUcGV/O7K/IjKjumz0jaZDlABaY0k83KvSXP9+6Xe1PRFQOud7hhezhpJoaAtER7eLuuNH3N+Oxwjl9I3DAAkPlhfOkpfgfi4P23Pxd3sIrjLdsh9oy0AE61ASDRU5+8qZCPv1L9CyF1kWSq1DO/RTwkYgD4J22Jea6u6OPGT/Tz/zstQ9qysH2p9Ax1BRk3t2M96vkp05iYbc/0dEGEv9oE7rRqXpLWJ5Do8SNhKbMZQnRBglMx1V368maNBkrrMn6OfsDipsW0mWv9yiSfmp54Wrl6h/V6kHafZArLQwn2YTIkQIwBM8i8VlCtwPxMvM1xdSC0HI6mEwur4uNBeq3K9qEg2/gN7JxVI9RJsyubg0hYpkedT7KQZzAI7A+sR25eErN8NekgfyefksexxafkUfUppn7eEnJ9haT7klsxMn0dAuFvmbPRHC0gCgNLvT7PXid1+m95YBQICTYHGclTASNXkwvz9OqoMMJq6X6e9sFn05yXU+nETjIdn3dbsIoLwEq/dS7A0R39JAjr+Pe3S9AJwR9R71QZWHrbKin5Spt/n8aJL9a7Xch5nsMspeLyaW+XW2a31kEg1LgnFB7kU5wFzzDNyV8rjUSbT9MPuLbhaA2vAxeX6WRzEdTk0fXPmUJnuRKSmYuyFNvYvaXKTZfnbkWp4oiUbwJP13K2nVgkAuJg72QrrDrByAFgh9nYcfTnkQXxsl838Wz+fn1XL/kOuA0QUE9OToC2fxOso1vh6uv5/Fpd0mT8n1LvU5iyU+ZvKNcpl8T5rkvn+avkmAdaEPYHgQF/rIEvdyeJizWaXczAuoCIL2fRIAfZhwXYsRa29hPadnKmVm8v3X5VpXFjczId2jfxmgg/hR3EOjsOHBlbLnvYCm2eKUzGj7CGhAPfDxdP55Ecj3llwnb/LC0WQqP5JrutgnKeauaNgQnjxAD9AHNcT5+cWvFprtuYA+J5/fOk5A9cGXzx0V4qH2t5Wb12J76nnb/6/NaP+pSTVG6ezV8dT98AiB1D5Jncr4ON46QM/RAaOTCKhs//vQ17nQJ1cyExQNuN4J+5w92nWR8B6jnKfFQYow+i6Mw32PZUtmrwSBXPadQiAJAwIYOA8XUL9Yljbhv6kiKmLzjHy+tPi9JbbvhSgMlqjHlouqt4fELJ4W9Xrjvq07wh9TzuFCOI/CWzzaZpqrVK+B9k0eyM+/rG5XQyABwHiYgEYTMbkVmvDuGyIe0pyf/W/7vRpv2DGT8/6FfGo41g/kXL8jn/o/LgaSlwyBBIATok3s4BHOnlBv0XtrCwNJi6bb5bvq0ak3+g0VJi+qyexrUqZipfZdsSMF+TQmx9LphH6/cmyNBNDjqhg+I9s0SbNuW/q3ZdP/Tf5OXhTuvP7PBJADQC3kQurFxTd9r6rgiDAe3Re4ZvNCHgRfZ0v5Jrv+D3iOALBWwmwXFdQoTGpxgCXa6uKq+6ju06/S6I+3dcl9UT1jOY8/COfSbwtdJeXr2X+T+2Uv2oGYtMLsEQhoM2XZzTzOuNHdN/mfamkeY9gmmz5LJpUB7fxe9kUMw7BNNwQT67OF0KaB2NgmDwzJQjzs8pZpH030sZofQGPclt3M44wb3X07dKMBYAU+9KH/D9X5N/LyM0vLAAAAAElFTkSuQmCC;" vertex="1" parent="1">
          <mxGeometry x="207" y="136" width="96.7" height="90" as="geometry" />
        </mxCell>
        <mxCell id="yX0KzCqddHvq5yeCaqTo-7" style="edgeStyle=none;curved=1;rounded=0;orthogonalLoop=1;jettySize=auto;html=1;exitX=1;exitY=0.5;exitDx=0;exitDy=0;entryX=0.02;entryY=0.599;entryDx=0;entryDy=0;entryPerimeter=0;fontSize=12;startSize=8;endSize=8;" edge="1" parent="1" source="yX0KzCqddHvq5yeCaqTo-4" target="yX0KzCqddHvq5yeCaqTo-1">
          <mxGeometry relative="1" as="geometry" />
        </mxCell>
      </root>
    </mxGraphModel>
  </diagram>
</mxfile>
